<?xml version="1.0" encoding="utf-8"?>
<!-- Generator: Adobe Illustrator 18.0.0, SVG Export Plug-In . SVG Version: 6.00 Build 0)  -->
<!DOCTYPE svg PUBLIC "-//W3C//DTD SVG 1.1//EN" "http://www.w3.org/Graphics/SVG/1.1/DTD/svg11.dtd">
<svg version="1.1" id="Layer_1" xmlns="http://www.w3.org/2000/svg" xmlns:xlink="http://www.w3.org/1999/xlink" x="0px" y="0px"
	 viewBox="0 0 720 576" enable-background="new 0 0 720 576" xml:space="preserve">
<path fill="#00AEEF" d="M363.6,258.8c-9.4,1-27.3,2.1-34.4-3.2c0,0,0,0,0,0c-4.6-2.2-8.9-5.7-13-10.9c-10.7-13.7-33.4-11.4-45.6,1.5
	c-12.7,13.5-12,34.1,1.6,46.7c13.1,12.1,35,12.6,45.6-1.7c4.3-5.8,8.9-9.7,14-12c0.2-0.1,0.5-0.2,0.8-0.4c0.1-0.1,0.2-0.1,0.4-0.2
	c0.5-0.2,1.1-0.4,1.8-0.6c0,0,0,0,0,0c0.9-0.3,1.8-0.5,2.7-0.7c13.6-3.4,27-1.4,32.1-0.5c0.8,0.1,1.5,0.2,2.2,0.5
	c4.2,1.4,5.5,5.1,1.8,8.8c-12.7,12.8-21.5,30.6-45.4,27.5c-18.9-2.4-33.3,14.8-32.5,33.8c0.7,18.1,17,33.1,34.6,31.9
	c18.4-1.3,33.2-17.8,30.4-36.5c-1.8-12.1,1.8-20.1,9.8-28.7c9.7-10.5,19.6-15.6,34.4-15.2c25.1,0.6,40.5-24.5,30.1-46.6
	c-6.5-13.6-18.5-19.5-37.5-18.3c-19.6,1.2-40-19.6-39.9-39.1c0.1-7.9-1.6-17-5.6-23.6c-8.5-14.2-26.6-18.1-41.3-10.6
	c-14.4,7.2-21.5,23.7-16.8,38.7C299,216,315,226.3,332,222.4c9.2-2.1,15.5-0.2,21.3,6.4c2.8,3.1,6.3,5.6,9,8.8
	c4.3,5.1,12.6,11.8,11.5,15.5c-0.8,2.7-2.3,4.2-4.2,5l0,0l0,0C367.8,258.7,365.8,258.8,363.6,258.8z M294.4,283.9
	c-8.3,0.2-15.1-6.4-15.3-14.7s6.4-15.1,14.7-15.3c8.3-0.2,15.1,6.4,15.3,14.7S302.6,283.7,294.4,283.9z M327.8,361.9
	c-8.3,0.2-15.1-6.4-15.3-14.7c-0.2-8.3,6.4-15.1,14.7-15.3c8.3-0.2,15.1,6.4,15.3,14.7C342.7,354.9,336.1,361.8,327.8,361.9z
	 M404.6,251.7c8.3-0.2,15.1,6.4,15.3,14.7s-6.4,15.1-14.7,15.3c-8.3,0.2-15.1-6.4-15.3-14.7C389.7,258.7,396.3,251.9,404.6,251.7z
	 M324.7,204.8c-8.3,0.2-15.1-6.4-15.3-14.7c-0.2-8.3,6.4-15.1,14.7-15.3c8.3-0.2,15.1,6.4,15.3,14.7S333,204.7,324.7,204.8z"/>
</svg>
