<?xml version="1.0" encoding="UTF-8" standalone="no"?>
<svg
   version="1.1"
   x="0"
   y="0"
   width="1280"
   height="1280"
   viewBox="0 0 1280 1280"
   id="svg150"
   sodipodi:docname="nfbot-3.svg"
   inkscape:export-filename="E:\GitHub\nf-Home\resources\nfbot\nf-bot.png"
   inkscape:export-xdpi="55.854546"
   inkscape:export-ydpi="55.854546"
   inkscape:version="1.1.1 (3bf5ae0d25, 2021-09-20)"
   xmlns:inkscape="http://www.inkscape.org/namespaces/inkscape"
   xmlns:sodipodi="http://sodipodi.sourceforge.net/DTD/sodipodi-0.dtd"
   xmlns="http://www.w3.org/2000/svg"
   xmlns:svg="http://www.w3.org/2000/svg">
  <sodipodi:namedview
     id="namedview152"
     pagecolor="#ffffff"
     bordercolor="#666666"
     borderopacity="1.0"
     inkscape:pageshadow="2"
     inkscape:pageopacity="0.0"
     inkscape:pagecheckerboard="0"
     showgrid="false"
     inkscape:zoom="0.50424242"
     inkscape:cx="552.3137"
     inkscape:cy="750.63101"
     inkscape:window-width="1920"
     inkscape:window-height="1017"
     inkscape:window-x="-8"
     inkscape:window-y="-8"
     inkscape:window-maximized="1"
     inkscape:current-layer="svg150" />
  <defs
     id="defs17">
    <clipPath
       id="Clip_1">
      <path
         d="M 0.3,2.5 H 795 V 825 H 0.3 Z"
         id="path2" />
    </clipPath>
    <clipPath
       id="Clip_2">
      <path
         d="M 0.3,2.5 H 795 V 825 H 0.3 Z"
         id="path5" />
    </clipPath>
    <clipPath
       id="Clip_3">
      <path
         d="M 0.3,2.5 H 795 V 825 H 0.3 Z"
         id="path8" />
    </clipPath>
    <clipPath
       id="Clip_4">
      <path
         d="M 0.3,2.5 H 795 V 825 H 0.3 Z"
         id="path11" />
    </clipPath>
    <clipPath
       id="Clip_5">
      <path
         d="M 0.3,2.5 H 795 V 825 H 0.3 Z"
         id="path14" />
    </clipPath>
    <style
       id="style2">.cls-1{fill:url(#linear-gradient);}</style>
    <linearGradient
       id="linear-gradient"
       x1="8.5500002"
       y1="-877.02002"
       x2="-413.45999"
       y2="-633.38"
       gradientTransform="matrix(0,-0.25232737,0.25232737,0,652.24845,636.80816)"
       gradientUnits="userSpaceOnUse">
      <stop
         offset="0"
         stop-color="#29235c"
         id="stop4" />
      <stop
         offset="0.68"
         stop-color="#009086"
         id="stop6" />
      <stop
         offset="1"
         stop-color="#4cb48c"
         id="stop8" />
    </linearGradient>
  </defs>
  <g
     id="g2172"
     transform="translate(274.412,212.0125)">
    <g
       clip-path="url(#Clip_1)"
       id="g21">
      <path
         d="m 283.68,216.45 c -37.49,7.35 -64.07,43.68 -60.475,84.705 3.59,41.035 36.08,72.18 74.28,72.895 M 626.66,138.105 c 23.005,64.82 25.42,212.5 -17.08,275 -38.37,56.425 -78.75,75 -146.25,75 -67.5,0 -107.88,-18.575 -146.25,-75 -42.5,-62.5 -40.085,-210.18 -17.08,-275 27.5,-77.5 92.91,-100.63 162.08,-100.63 69.17,0 137.08,23.13 164.58,100.63 z m 14.94,78.235 c 37.555,7.02 64.455,43.115 61.215,84.17 -3.235,41.065 -35.45,72.49 -73.64,73.54 M 438.79,513.48 310.835,556.665 c 0,0 -11.67,128.125 30,269.795 M 255.7,663.12 c -7.79,-11.01 -12.365,-24.445 -12.365,-38.955 0,-37.28 30.22,-67.5 67.5,-67.5 m 0,135 c -7.405,0 -14.53,-1.19 -21.2,-3.39 m 198.075,-200.57 1.105,24.795 c 0,0 -6.865,6.665 -23.52,6.665 h -3.92 c -16.66,0 -23.52,-6.665 -23.52,-6.665 l 0.895,-24.58 m 48.685,25.41 128.4,43.335 c 0,0 11.665,128.125 -30,269.795 m 30,-134.795 c 37.28,0 67.5,-30.215 67.5,-67.5 0,-37.28 -30.22,-67.5 -67.5,-67.5 M 547.5,535.835 c 0,0 -29.995,26.665 -83.33,26.665 h -1.67 c -53.335,0 -83.33,-26.665 -83.33,-26.665 M 163.05,742.94 c 0.48,-0.47 0.97,-0.935 1.47,-1.385 m 31.7,-10.56 c 21.385,1.885 38.155,19.84 38.155,41.715 0,23.125 -18.75,41.875 -41.875,41.875 -23.125,0 -41.875,-18.75 -41.875,-41.875 0,-11.645 4.75,-22.175 12.425,-29.77 M 135.81,593.465 c 45.05,-9.215 54.825,-31.1 59.02,-57.175 3.98,-24.77 1.5,-40.09 -5.49,-47.87 -9.575,-10.655 -61.81,-21.245 -78.065,-24.24 -16.255,-2.99 -27.24,5.255 -18.02,24.58 9.45,19.795 38.115,18.05 55.165,18.39 0,0 -17.94,14.7 -21.98,37.815 -7.06,40.4 9.37,48.5 9.37,48.5 z m -80.075,-46.76 c 0,0 -1.055,25.44 24.055,43.245 18.025,12.78 37.415,9.33 56.02,3.515 M 95.015,466.44 c -0.415,-8.615 0.655,-16.31 3.77,-21.305 8.115,-13.03 28.575,-12.62 33.815,-4.76 7.555,11.34 9.895,29.18 9.895,29.18 m -8.82,55.09 c 0,0 -8.105,6.365 -21.2,-7.64 -3.845,-4.11 -7.45,-10.645 -10.385,-18.225 m -6.095,-48.71 c -9.075,-4.31 -31.535,-0.48 -33.505,18.245 -1.945,18.36 8.265,55.65 23.875,66.09 15.61,10.445 26.98,-3.015 30.18,-12.725 m -33.31,10.635 C 83.51,541.04 79.57,554.71 62.375,549.56 45.18,544.415 31.925,518.4 28.34,494.26 25.295,473.77 48.38,466.37 61.28,473.84 m 73.08,-30.2 c 0,0 -11.845,-105.61 -6.655,-124.83 5.49,-20.31 35.99,-21.74 39.99,1.725 4,23.465 10.415,159.98 10.415,159.98 m -21.545,110.29 41.77,151.695 c 0,0 -8.235,15.73 -31.775,9.27 L 126.565,598.305 M 235,764.165 l 60,-83.33 c 0,0 0,-31.25 -35.835,-23.335 l -47.5,75.835 M 635,689.585 658.75,828.335 M 671.875,663.96 697.5,828.335"
         fill-opacity="0"
         stroke="#1a1919"
         stroke-width="13"
         stroke-linecap="round"
         stroke-linejoin="round"
         id="path19" />
    </g>
    <path
       d="m 641.6,216.34 c 37.555,7.02 64.455,43.115 61.215,84.17 -3.235,41.065 -35.45,72.49 -73.64,73.54"
       fill="#181730"
       id="path23" />
    <path
       d="m 615.835,556.665 c 37.28,0 67.5,30.22 67.5,67.5 0,37.285 -30.22,67.5 -67.5,67.5 l -27.5,-0.83 7.5,-114.17 20,-20"
       fill="#009086"
       id="path25" />
    <g
       clip-path="url(#Clip_2)"
       id="g31">
      <path
         d="m 310.835,691.665 c -7.405,0 -14.53,-1.19 -21.2,-3.39 L 255.7,663.12 c -7.79,-11.01 -12.365,-24.445 -12.365,-38.955 0,-37.28 30.22,-67.5 67.5,-67.5 L 342.5,637.5 310.835,691.665"
         fill="#009086"
         id="path27" />
      <path
         d="m 585.835,826.46 c 41.665,-141.67 30,-269.795 30,-269.795 l -128.4,-43.335 -48.645,0.15 -127.955,43.185 c 0,0 -11.67,128.125 30,269.795 h 245"
         fill="#4cb48c"
         id="path29" />
    </g>
    <path
       d="m 163.05,742.94 c 0.48,-0.47 0.97,-0.935 1.47,-1.385"
       fill="#4cb48c"
       id="path33" />
    <path
       d="m 196.22,730.995 c 21.385,1.885 38.155,19.84 38.155,41.715 0,23.125 -18.75,41.875 -41.875,41.875 -23.125,0 -41.875,-18.75 -41.875,-41.875 0,-11.645 4.75,-22.175 12.425,-29.77"
       fill="#009086"
       id="path35" />
    <path
       d="m 135.81,593.465 c 42.915,-9.835 54.205,-29.605 58.61,-53.665 4.515,-24.675 1.91,-43.6 -5.08,-51.38 -9.575,-10.655 -61.81,-21.245 -78.065,-24.24 -16.255,-2.99 -27.24,5.255 -18.02,24.58 9.45,19.795 38.115,18.05 55.165,18.39 0,0 -17.94,14.7 -21.98,37.815 -7.06,40.4 9.37,48.5 9.37,48.5"
       fill="#009086"
       id="path37" />
    <path
       d="m 95.015,466.44 c -0.415,-8.615 0.655,-16.31 3.77,-21.305 8.115,-13.03 28.575,-12.62 33.815,-4.76 7.555,11.34 9.895,29.18 9.895,29.18"
       fill="#009086"
       id="path39" />
    <path
       d="m 95.995,450.07 c -9.075,-4.31 -31.535,-0.48 -33.505,18.245 -1.945,18.36 8.265,55.65 23.875,66.09 15.61,10.445 26.98,-3.015 30.18,-12.725"
       fill="#009086"
       id="path41" />
    <path
       d="m 61.28,473.84 c -12.9,-7.47 -35.985,-0.07 -32.94,20.42 3.585,24.14 16.84,50.155 34.035,55.3 17.195,5.15 21.135,-8.52 20.86,-17.245"
       fill="#009086"
       id="path43" />
    <path
       d="m 55.735,546.705 c 0,0 1.19,24.295 24.055,43.245 18.755,15.55 37.415,9.33 56.02,3.515 l 38.295,-75.015 -16.93,-22.625 -74.375,0.94 c 0,0 -28.505,38.635 -27.065,49.94"
       fill="#009086"
       id="path45" />
    <path
       d="m 178.11,480.515 c 0,0 -6,-137.785 -10,-161.25 -4,-23.465 -31.365,-19.685 -39.99,-1.73 -8.615,17.955 5.2,115.16 5.2,115.16 l 5.415,38.445 39.375,9.375"
       fill="#009086"
       id="path47" />
    <path
       d="m 156.565,590.805 41.77,151.695 c 0,0 -8.235,15.73 -31.775,9.27 L 126.565,598.305"
       fill="#fffffe"
       id="path49" />
    <g
       clip-path="url(#Clip_3)"
       id="g55">
      <path
         d="m 235,764.165 60,-83.33 c 0,0 0,-31.25 -35.835,-23.335 l -47.5,75.835 23.335,30.83"
         fill="#fffffe"
         id="path51" />
      <path
         d="M 671.875,663.96 697.5,828.335 H 658.75 L 635,689.585 671.875,663.96"
         fill="#fffffe"
         id="path53" />
    </g>
    <path
       d="m 439.05,486.845 -1.195,25.655 -58.685,23.335 c 0,0 29.995,26.665 83.33,26.665 h 1.67 c 53.335,0 83.33,-26.665 83.33,-26.665 l -58.685,-23.335 -1.26,-25.655"
       fill="#009086"
       id="path57" />
    <path
       d="m 297.485,374.05 c -38.2,-0.715 -70.69,-31.86 -74.28,-72.895 C 219.61,260.13 246.19,223.8 283.68,216.45 l 12.985,11.05 10.835,134.165 -10.015,12.385"
       fill="#181730"
       id="path59" />
    <path
       d="m 230.705,320.32 c -3.595,-41.025 22.985,-77.35 60.475,-84.7 l 6.595,5.61 -1.11,-13.73 -12.985,-11.05 c -37.49,7.35 -64.07,43.68 -60.475,84.705 1.035,11.81 4.52,22.755 9.79,32.435 -1.08,-4.29 -1.89,-8.705 -2.29,-13.27"
       fill="#29235c"
       id="path61" />
    <path
       d="m 699.295,320.32 c 3.595,-41.025 -22.985,-77.35 -60.475,-84.7 l -6.595,5.61 1.105,-13.73 12.99,-11.05 c 37.49,7.35 64.07,43.68 60.475,84.705 -1.035,11.81 -4.52,22.755 -9.795,32.435 1.085,-4.29 1.895,-8.705 2.295,-13.27"
       fill="#29235c"
       id="path63" />
    <path
       d="m 626.66,138.105 c 23.005,64.82 25.42,212.5 -17.08,275 -38.37,56.425 -78.75,75 -146.25,75 -67.5,0 -107.88,-18.575 -146.25,-75 -42.5,-62.5 -40.085,-210.18 -17.08,-275 27.5,-77.5 92.91,-100.63 162.08,-100.63 69.17,0 137.08,23.13 164.58,100.63"
       fill="#4cb48c"
       id="path65" />
    <path
       d="m 308.49,162.45 c 28.84,-77.5 97.44,-100.63 169.985,-100.63 47.14,0 93.71,9.785 128.47,37.89 -33.565,-47.03 -88.8,-62.235 -144.865,-62.235 -69.17,0 -134.58,23.13 -162.08,100.63 -20.485,57.73 -24.615,181.13 4.745,251.6 -20.94,-71.84 -15.435,-175.715 3.745,-227.255"
       fill="#fffffe"
       id="path67" />
    <path
       d="m 435.365,285.655 c 0,29.65 -23.97,53.685 -53.54,53.685 -29.57,0 -53.535,-24.035 -53.535,-53.685 0,-29.65 23.965,-53.68 53.535,-53.68 29.57,0 53.54,24.03 53.54,53.68"
       fill="#fffffe"
       id="path69" />
    <path
       d="m 491.295,285.655 c 0,29.65 23.98,53.685 53.545,53.685 29.57,0 53.54,-24.035 53.54,-53.685 0,-29.65 -23.97,-53.68 -53.54,-53.68 -29.565,0 -53.545,24.03 -53.545,53.68"
       fill="#fffffe"
       id="path71" />
    <path
       d="m 126.25,598.96 30,-10.625 3.435,13.435 c 0,0 -8.435,17.19 -29.06,20.315 L 126.25,598.96"
       fill="#009086"
       id="path91" />
    <path
       d="m 635,689.585 36.875,-25.625 2.375,25.95 c 0,0 -14.375,16.875 -34.375,20.625 L 635,689.585"
       fill="#009086"
       id="path93" />
    <path
       d="m 437.5,488.755 51.67,0.415 -0.005,12.915 c 0,0 -21.25,14.165 -51.665,8.125 v -21.455"
       fill="#29235c"
       id="path95" />
    <path
       d="m 400.635,89.415 c 5.225,10.045 -3.545,24.975 -19.6,33.34 -16.06,8.36 -33.315,7 -38.55,-3.055 -5.235,-10.05 3.54,-24.97 19.595,-33.335 16.06,-8.365 33.315,-7 38.555,3.05"
       fill="#fffffe"
       id="path97" />
    <path
       d="m 291.55,578.57 c 3.65,6.05 -1.215,15.68 -10.88,21.52 -9.665,5.84 -20.455,5.67 -24.11,-0.38 -3.65,-6.045 1.22,-15.675 10.885,-21.515 9.66,-5.84 20.455,-5.675 24.105,0.375"
       fill="#4cb48c"
       id="path99" />
    <path
       d="m 310.835,556.665 68.335,-20.83 12.5,11.665 -82.505,34.165 c 0,0 -4.165,-14.165 1.67,-25"
       fill="#f2f1f0"
       id="path101" />
    <path
       d="m 547.5,535.835 68.335,20.83 0.835,25.835 c 0,0 -69.17,-30.835 -86.67,-33.335 l 17.5,-13.33"
       fill="#f2f1f0"
       id="path103" />
    <path
       d="m 131.25,392.085 c 0,0 1.53,-57.24 12.085,-68.755 13.75,-14.995 25.415,2.5 25.415,2.5 0,0 -2.915,-22.915 -23.335,-22.915 -20.415,0 -19.165,35.835 -19.58,44.17 -0.42,8.335 5.415,45 5.415,45"
       fill="#4cb48c"
       id="path105" />
    <path
       d="m 31.85,503.52 c 0,0 12.315,-25.815 30.44,-17.265 1.22,-12.55 17.085,-27.085 29.585,-17.925 l 4.74,-3.265 7.76,-1.11 c 0,0 0.625,-22.285 27.71,-17.91 l -10.375,-12.55 c 0,0 -16.875,3.07 -17,3.64 -0.125,0.57 -6.48,10.525 -6.48,10.525 l -21.98,1.095 c 0,0 -13.64,9.145 -13.64,13.88 0,3.24 -0.12,5.68 -0.12,5.68 0,0 -24.055,3.065 -24.155,3.14 -7.055,5.395 -10.12,6.665 -9.72,13.85 0.405,7.285 3.235,18.215 3.235,18.215"
       fill="#4cb48c"
       id="path107" />
    <path
       d="m 93.255,488.76 c -2.11,-7.06 -6.535,-19.77 3.36,-23.695 9.895,-3.925 41.09,6.235 41.09,6.235 0,0 -41.36,-2.595 -44.45,17.46"
       fill="#4cb48c"
       id="path109" />
    <path
       d="m 283.68,216.45 c -37.49,7.35 -64.07,43.68 -60.475,84.705 3.59,41.035 36.08,72.18 74.28,72.895 M 626.66,138.105 c 23.005,64.82 25.42,212.5 -17.08,275 -38.37,56.425 -78.75,75 -146.25,75 -67.5,0 -107.88,-18.575 -146.25,-75 -42.5,-62.5 -40.085,-210.18 -17.08,-275 27.5,-77.5 92.91,-100.63 162.08,-100.63 69.17,0 137.08,23.13 164.58,100.63 z m -99.58,338.75 1.25,-82.255 H 396.25 l 1.25,81.005 M 528.33,397.75 H 396.25"
       fill-opacity="0"
       stroke="#1a1919"
       stroke-width="8"
       stroke-linecap="round"
       stroke-linejoin="round"
       id="path111" />
    <path
       d="m 257.37,227.395 c 0,0 -12.255,61.765 11.4,140.365"
       fill-opacity="0"
       stroke="#1a1919"
       stroke-width="5"
       stroke-linecap="round"
       stroke-linejoin="round"
       id="path113" />
    <path
       d="m 641.6,216.34 c 37.555,7.02 64.455,43.115 61.215,84.17 -3.235,41.065 -35.45,72.49 -73.64,73.54"
       fill-opacity="0"
       stroke="#1a1919"
       stroke-width="8"
       stroke-linecap="round"
       stroke-linejoin="round"
       id="path115" />
    <path
       d="m 668.01,227.055 c 0,0 12.785,61.655 -10.18,140.455"
       fill-opacity="0"
       stroke="#1a1919"
       stroke-width="5"
       stroke-linecap="round"
       stroke-linejoin="round"
       id="path117" />
    <path
       d="m 435.595,285.655 c 0,29.325 -23.77,53.1 -53.095,53.1 -29.325,0 -53.09,-23.775 -53.09,-53.1 0,-29.32 23.765,-53.09 53.09,-53.09 29.325,0 53.095,23.77 53.095,53.09 z"
       fill-opacity="0"
       stroke="#1a1919"
       stroke-width="8"
       stroke-linecap="round"
       stroke-linejoin="round"
       id="path119" />
    <path
       d="m 415.575,285.655 c 0,18.27 -14.805,33.08 -33.075,33.08 -18.265,0 -33.08,-14.81 -33.08,-33.08 0,-18.265 14.815,-33.075 33.08,-33.075 18.27,0 33.075,14.81 33.075,33.075"
       fill="#1a1919"
       id="path121" />
    <path
       d="m 491.06,285.655 c 0,29.325 23.78,53.1 53.1,53.1 29.32,0 53.095,-23.775 53.095,-53.1 0,-29.32 -23.775,-53.09 -53.095,-53.09 -29.32,0 -53.1,23.77 -53.1,53.09 z"
       fill-opacity="0"
       stroke="#1a1919"
       stroke-width="8"
       stroke-linecap="round"
       stroke-linejoin="round"
       id="path123" />
    <path
       d="m 511.085,285.655 c 0,18.27 14.81,33.08 33.075,33.08 18.265,0 33.075,-14.81 33.075,-33.08 0,-18.265 -14.81,-33.075 -33.075,-33.075 -18.265,0 -33.075,14.81 -33.075,33.075"
       fill="#1a1919"
       id="path125" />
    <g
       clip-path="url(#Clip_4)"
       id="g129">
      <path
         d="m 438.79,513.48 -127.955,43.185 c 0,0 -11.67,128.125 30,269.795 M 255.7,663.12 c -7.79,-11.01 -12.365,-24.445 -12.365,-38.955 0,-37.28 30.22,-67.5 67.5,-67.5 m 0,135 c -7.405,0 -14.53,-1.19 -21.2,-3.39 m 198.075,-200.57 1.105,24.795 c 0,0 -6.865,6.665 -23.52,6.665 h -3.92 c -16.66,0 -23.52,-6.665 -23.52,-6.665 l 0.895,-24.58 m 48.685,25.41 128.4,43.335 c 0,0 11.665,128.125 -30,269.795 m 30,-134.795 c 37.28,0 67.5,-30.215 67.5,-67.5 0,-37.28 -30.22,-67.5 -67.5,-67.5 M 547.5,535.835 c 0,0 -29.995,26.665 -83.33,26.665 h -1.67 c -53.335,0 -83.33,-26.665 -83.33,-26.665"
         fill-opacity="0"
         stroke="#1a1919"
         stroke-width="8"
         stroke-linecap="round"
         stroke-linejoin="round"
         id="path127" />
    </g>
    <path
       d="m 413.515,265.73 c 0,5.155 -4.17,9.34 -9.335,9.34 -5.155,0 -9.345,-4.185 -9.345,-9.34 0,-5.16 4.19,-9.34 9.345,-9.34 5.165,0 9.335,4.18 9.335,9.34"
       fill="#fffffe"
       id="path131" />
    <path
       d="m 575.69,265.73 c 0,5.155 -4.18,9.34 -9.335,9.34 -5.17,0 -9.355,-4.185 -9.355,-9.34 0,-5.16 4.185,-9.34 9.355,-9.34 5.155,0 9.335,4.18 9.335,9.34"
       fill="#fffffe"
       id="path133" />
    <path
       d="m 163.05,742.94 c 0.48,-0.47 0.97,-0.935 1.47,-1.385 m 31.7,-10.56 c 21.385,1.885 38.155,19.84 38.155,41.715 0,23.125 -18.75,41.875 -41.875,41.875 -23.125,0 -41.875,-18.75 -41.875,-41.875 0,-11.645 4.75,-22.175 12.425,-29.77 M 135.81,593.465 c 45.05,-9.215 54.825,-31.1 59.02,-57.175 3.98,-24.77 1.5,-40.09 -5.49,-47.87 -9.575,-10.655 -61.81,-21.245 -78.065,-24.24 -16.255,-2.99 -27.24,5.255 -18.02,24.58 9.45,19.795 38.115,18.05 55.165,18.39 0,0 -17.94,14.7 -21.98,37.815 -7.06,40.4 9.37,48.5 9.37,48.5 z m -80.075,-46.76 c 0,0 -1.055,25.44 24.055,43.245 18.025,12.78 37.415,9.33 56.02,3.515 M 94.93,464.685 c -0.42,-8.615 0.74,-14.555 3.855,-19.55 8.115,-13.03 28.575,-12.62 33.815,-4.76 7.555,11.34 9.895,29.18 9.895,29.18 m -8.82,55.09 c 0,0 -8.105,6.365 -21.2,-7.64 -3.845,-4.11 -7.055,-9.295 -9.985,-16.87 M 95.995,450.07 c -9.075,-4.31 -31.535,-0.48 -33.505,18.245 -1.945,18.36 8.265,55.65 23.875,66.09 15.61,10.445 26.98,-3.015 30.18,-12.725 m -33.31,10.635 C 83.51,541.04 79.57,554.71 62.375,549.56 45.18,544.415 31.925,518.4 28.34,494.26 25.295,473.77 48.38,466.37 61.28,473.84 m 73.08,-30.2 c 0,0 -11.845,-105.61 -6.655,-124.83 5.49,-20.31 35.99,-21.74 39.99,1.725 4,23.465 10.415,159.98 10.415,159.98"
       fill-opacity="0"
       stroke="#1a1919"
       stroke-width="8"
       stroke-linecap="round"
       stroke-linejoin="round"
       id="path135" />
    <path
       d="m 147.29,507.71 c 0,0 30.245,-13.83 43.335,-19.995"
       fill-opacity="0"
       stroke="#1a1919"
       stroke-width="6"
       stroke-linecap="round"
       stroke-linejoin="round"
       id="path137" />
    <g
       clip-path="url(#Clip_5)"
       id="g141">
      <path
         d="m 156.565,590.805 41.77,151.695 c 0,0 -8.235,15.73 -31.775,9.27 L 126.565,598.305 M 235,764.165 l 60,-83.33 c 0,0 0,-31.25 -35.835,-23.335 l -47.5,75.835 M 635,689.585 658.75,828.335 M 671.875,663.96 697.5,828.335"
         fill-opacity="0"
         stroke="#1a1919"
         stroke-width="8"
         stroke-linecap="round"
         stroke-linejoin="round"
         id="path139" />
    </g>
    <path
       d="m 341.67,204.395 h 75 m 89.995,0 h 75"
       fill-opacity="0"
       stroke="#1a1919"
       stroke-width="15"
       stroke-linecap="round"
       id="path143" />
    <path
       d="m 128.71,383.02 c 0,0 13.765,-12.555 43.15,-3.755"
       fill-opacity="0"
       stroke="#1a1919"
       stroke-width="6"
       stroke-linecap="round"
       stroke-linejoin="round"
       id="path145" />
    <path
       d="M 294.19,161.015 H 631.67"
       fill-opacity="0"
       stroke="#1a1919"
       stroke-width="6"
       id="path147" />
    <g
       id="g2111"
       transform="matrix(2.1295617,0,0,2.1295617,-679.50844,-703.91547)">
      <rect
         style="fill:#ffffff;stroke-width:2.4902"
         id="rect848"
         width="65.635925"
         height="66.209167"
         x="502.69907"
         y="624.62585" />
      <path
         class="cls-1"
         d="m 521.92643,637.26259 c -1.8632,-1.86321 -4.62852,-1.88285 -6.48584,-0.0531 -1.88874,1.87891 -1.93004,4.71698 -0.0885,6.54285 a 4.6167357,4.6167357 0 1 0 6.57036,-6.48589 z m 0.7606,34.69334 c -1.7944,-1.81606 -4.63835,-1.78459 -6.48583,0.0767 a 4.5676005,4.5676005 0 0 0 -0.0609,6.50747 c 1.76885,1.77869 4.80934,1.80424 6.55658,0.0669 1.85732,-1.84943 1.84157,-4.76022 -0.0105,-6.65091 z M 556.72,636.68282 c -1.86125,-1.86324 -4.76808,-1.9045 -6.56249,-0.0825 -2.35849,2.38992 -1.57234,7.07548 2.39976,7.77907 a 4.6442518,4.6442518 0 0 0 4.29833,-1.42492 c 1.68434,-1.85533 1.64896,-4.47718 -0.13557,-6.27158 z m 0,0 c -1.86125,-1.86324 -4.76808,-1.9045 -6.56249,-0.0825 -2.35849,2.38992 -1.57234,7.07548 2.39976,7.77907 a 4.6442518,4.6442518 0 0 0 4.29833,-1.42492 c 1.68434,-1.85533 1.64896,-4.47718 -0.1355,-6.27158 z m -34.03297,35.27311 c -1.7944,-1.81606 -4.63835,-1.78459 -6.48583,0.0767 a 4.5676005,4.5676005 0 0 0 -0.0609,6.50747 c 1.76885,1.77869 4.80934,1.80424 6.55658,0.0669 1.85732,-1.84943 1.84157,-4.76022 -0.0105,-6.65091 z m -0.7606,-34.69334 c -1.8632,-1.86321 -4.62852,-1.88285 -6.48584,-0.0531 -1.88874,1.87891 -1.93004,4.71698 -0.0885,6.54285 a 4.6167357,4.6167357 0 1 0 6.57035,-6.48587 z m 0,0 c -1.8632,-1.86321 -4.62852,-1.88285 -6.48584,-0.0531 -1.88874,1.87891 -1.93004,4.71698 -0.0885,6.54285 a 4.6167357,4.6167357 0 1 0 6.57036,-6.48589 z m 0.7606,34.69334 c -1.7944,-1.81606 -4.63835,-1.78459 -6.48583,0.0767 a 4.5676005,4.5676005 0 0 0 -0.0609,6.50747 c 1.76885,1.77869 4.80934,1.80424 6.55658,0.0669 1.85732,-1.84943 1.84157,-4.76022 -0.0105,-6.65091 z m 30.56402,-1.46815 a 4.7307286,4.7307286 0 1 0 4.73663,4.73268 4.7287635,4.7287635 0 0 0 -4.73663,-4.73467 z M 556.72,636.68282 c -1.86125,-1.86324 -4.76808,-1.9045 -6.56249,-0.0825 -2.35849,2.38992 -1.57234,7.07548 2.39976,7.77907 a 4.6442518,4.6442518 0 0 0 4.29833,-1.42492 c 1.68434,-1.85533 1.64896,-4.47718 -0.13557,-6.27158 z m 0,0 c -1.86125,-1.86324 -4.76808,-1.9045 -6.56249,-0.0825 -2.35849,2.38992 -1.57234,7.07548 2.39976,7.77907 a 4.6442518,4.6442518 0 0 0 4.29833,-1.42492 c 1.68434,-1.85533 1.64896,-4.47718 -0.1355,-6.27158 z m -40.5188,35.34778 a 4.5676005,4.5676005 0 0 0 -0.0609,6.50745 c 1.76885,1.7787 4.80934,1.80425 6.55658,0.0669 1.85732,-1.84744 1.84748,-4.75823 0,-6.65091 -1.80424,-1.81602 -4.64427,-1.7846 -6.49568,0.0767 z m 5.739,-28.24088 a 4.6187006,4.6187006 0 0 0 -0.014,-6.52713 c -1.86331,-1.86321 -4.62863,-1.88285 -6.48595,-0.0531 -1.88875,1.87891 -1.93004,4.71698 -0.0885,6.54284 a 4.646217,4.646217 0 0 0 6.58804,0.0376 z m 31.31085,26.69607 a 4.7307286,4.7307286 0 1 0 4.73663,4.73269 4.7287635,4.7287635 0 0 0 -4.73663,-4.73269 z m 10.18866,-50.82144 h -55.3969 a 10.047148,10.047148 0 0 0 -10.03731,10.04912 v 55.39298 a 10.053045,10.053045 0 0 0 10.04516,10.05306 h 55.38905 a 10.053045,10.053045 0 0 0 10.0373,-10.05306 v -55.39298 a 10.047148,10.047148 0 0 0 -10.0373,-10.04912 z m -10.18866,65.61897 a 10.066803,10.066803 0 1 1 10.06876,-10.06484 10.070735,10.070735 0 0 1 -10.06876,10.06484 z m 4.62852,-36.27744 c -3.0837,1.67454 -6.24017,1.989 -9.43393,0.29302 a 7.4154721,7.4154721 0 0 1 -2.45284,-2.07152 c -2.19337,-2.82821 -5.05501,-4.34159 -8.69102,-4.35929 -0.78616,0 -1.54481,0.0137 -2.3172,0.0509 a 12.09117,12.09117 0 0 0 -8.45122,3.94457 l -1.67455,1.82587 a 12.207129,12.207129 0 0 0 -3.19967,8.15644 v 0.047 c -0.0105,1.38758 0.0105,2.76924 0.021,4.16274 0.0245,2.03026 0.908,3.62616 2.555,4.76804 1.68045,1.16353 3.27045,2.38996 4.23153,4.27282 a 10.51688,10.51688 0 0 1 -1.28339,11.48975 c -2.6297,3.1152 -6.0456,4.23743 -9.96461,3.44343 -3.91892,-0.79404 -6.6469,-3.13091 -7.87725,-7.0224 -0.73703,-2.32115 -0.41273,-4.57546 0.60338,-6.74133 a 14.284562,14.284562 0 0 1 3.01102,-4.261 c 2.23268,-2.16195 3.20951,-4.86439 3.45517,-7.86163 a 13.020806,13.020806 0 0 0 -1.05531,-6.48583 c -0.65646,-1.45046 -1.61753,-2.6297 -2.80071,-3.71853 -2.50001,-2.2897 -4.50274,-4.95087 -4.38875,-8.5672 0.13553,-4.08608 2.00471,-7.27203 5.68789,-9.147 3.59471,-1.8357 7.12067,-1.43475 10.43433,0.83138 0.98269,0.68197 1.77868,1.62732 2.67688,2.42923 2.83804,2.53735 6.2087,3.27239 9.87027,3.11517 2.33293,-0.10828 4.52043,-0.62107 6.41311,-2.10693 0.80384,-0.62697 1.4092,-1.41511 2.03419,-2.19142 2.62577,-3.25668 6.0731,-4.32388 10.05893,-3.49647 4.38874,0.89819 7.2897,4.12738 7.87931,8.42767 0.59552,4.44969 -1.4603,8.65563 -5.34197,10.77238 z m -7.72206,-12.40563 c -2.35849,2.38992 -1.57234,7.07547 2.39976,7.77907 a 4.6442518,4.6442518 0 0 0 4.29833,-1.42492 c 1.69026,-1.86319 1.64896,-4.47718 -0.1355,-6.27158 -1.86125,-1.86324 -4.76807,-1.9045 -6.56248,-0.0825 z m 3.09354,33.88554 a 4.7307286,4.7307286 0 1 0 4.73663,4.73269 4.7287635,4.7287635 0 0 0 -4.73663,-4.73269 z m -37.04985,1.54481 a 4.5676005,4.5676005 0 0 0 -0.0609,6.50745 c 1.76885,1.7787 4.80934,1.80425 6.55658,0.0669 1.85732,-1.84744 1.84748,-4.75823 0,-6.65091 -1.80424,-1.81602 -4.64426,-1.7846 -6.49567,0.0768 z m -0.75668,-34.82107 c -1.88874,1.87892 -1.93005,4.71698 -0.0885,6.54284 a 4.6167357,4.6167357 0 1 0 6.57033,-6.48586 c -1.8632,-1.86713 -4.62851,-1.88677 -6.4819,-0.057 z m 37.80653,33.27626 a 4.7307286,4.7307286 0 1 0 4.73663,4.73269 4.7287635,4.7287635 0 0 0 -4.73663,-4.73269 z m -31.32462,-33.21531 c -1.8632,-1.86324 -4.62852,-1.88288 -6.48584,-0.053 -1.88874,1.87894 -1.93004,4.71698 -0.0885,6.54285 a 4.6167357,4.6167357 0 1 0 6.57035,-6.48584 z m 0.7606,34.68545 c -1.7944,-1.81606 -4.63835,-1.78459 -6.48583,0.0767 a 4.5676005,4.5676005 0 0 0 -0.0609,6.50747 c 1.76885,1.77869 4.80934,1.80424 6.55658,0.0669 1.85732,-1.84943 1.84157,-4.76022 -0.0105,-6.65091 z M 556.72,636.68282 c -1.86125,-1.86324 -4.76808,-1.9045 -6.56249,-0.0825 -2.35849,2.38992 -1.57234,7.07548 2.39976,7.77907 a 4.6442518,4.6442518 0 0 0 4.29833,-1.42492 c 1.68434,-1.85533 1.64896,-4.47718 -0.13557,-6.27158 z m 0,0 c -1.86125,-1.86324 -4.76808,-1.9045 -6.56249,-0.0825 -2.35849,2.38992 -1.57234,7.07548 2.39976,7.77907 a 4.6442518,4.6442518 0 0 0 4.29833,-1.42492 c 1.68434,-1.85533 1.64896,-4.47718 -0.13557,-6.27158 z m -3.46895,33.80496 a 4.7307286,4.7307286 0 1 0 4.73663,4.73268 4.7287635,4.7287635 0 0 0 -4.73663,-4.73467 z m -30.56402,1.46815 c -1.7944,-1.81606 -4.63835,-1.78459 -6.48583,0.0767 a 4.5676005,4.5676005 0 0 0 -0.0609,6.50747 c 1.76885,1.77869 4.80934,1.80424 6.55658,0.0669 1.85732,-1.84943 1.84157,-4.76022 -0.0105,-6.65091 z m -0.7606,-34.69334 c -1.8632,-1.86321 -4.62852,-1.88285 -6.48584,-0.0531 -1.88874,1.87891 -1.93004,4.71698 -0.0885,6.54285 a 4.6167357,4.6167357 0 1 0 6.57035,-6.48587 z"
         id="path13"
         style="fill:#181730;fill-opacity:1;stroke-width:0.196541" />
    </g>
  </g>
</svg>
