<?xml version="1.0" encoding="UTF-8" standalone="no"?>
<!-- Svg Vector Icons : http://www.onlinewebfonts.com/icon -->

<svg
   xmlns:dc="http://purl.org/dc/elements/1.1/"
   xmlns:cc="http://creativecommons.org/ns#"
   xmlns:rdf="http://www.w3.org/1999/02/22-rdf-syntax-ns#"
   xmlns:svg="http://www.w3.org/2000/svg"
   xmlns="http://www.w3.org/2000/svg"
   xmlns:sodipodi="http://sodipodi.sourceforge.net/DTD/sodipodi-0.dtd"
   xmlns:inkscape="http://www.inkscape.org/namespaces/inkscape"
   version="1.1"
   x="0px"
   y="0px"
   viewBox="0 0 1000 1000"
   enable-background="new 0 0 1000 1000"
   xml:space="preserve"
   id="svg2"
   inkscape:version="0.91 r13725"
   sodipodi:docname="nfbot2.svg"
   inkscape:export-filename="C:\Users\jassimoes\Downloads\nfbot-512.png"
   inkscape:export-xdpi="47.025204"
   inkscape:export-ydpi="47.025204"><defs
     id="defs14" /><sodipodi:namedview
     pagecolor="#ffffff"
     bordercolor="#666666"
     borderopacity="1"
     objecttolerance="10"
     gridtolerance="10"
     guidetolerance="10"
     inkscape:pageopacity="0"
     inkscape:pageshadow="2"
     inkscape:window-width="1513"
     inkscape:window-height="872"
     id="namedview12"
     showgrid="false"
     inkscape:zoom="0.236"
     inkscape:cx="738.87099"
     inkscape:cy="422.18186"
     inkscape:window-x="0"
     inkscape:window-y="0"
     inkscape:window-maximized="0"
     inkscape:current-layer="svg2" /><metadata
     id="metadata4"> Svg Vector Icons : http://www.onlinewebfonts.com/icon <rdf:RDF><cc:Work
     rdf:about=""><dc:format>image/svg+xml</dc:format><dc:type
       rdf:resource="http://purl.org/dc/dcmitype/StillImage" /><dc:title></dc:title></cc:Work></rdf:RDF></metadata><path
     d="m 255,336.7 c -11.2,0 -20.8,-4 -28.8,-12 -8,-8 -12,-17.6 -12,-28.8 l 0,-245 c 0,-11.2 4,-20.8 12,-28.8 8,-8 17.6,-12 28.8,-12 l 490,0 c 11.2,0 20.8,4 28.8,12 8,8 12,17.6 12,28.8 l 0,245 c 0,11.2 -4,20.8 -12,28.8 -8,8 -17.6,12 -28.8,12 l -490,0 z m 122.5,-69.5 c 25.9,0 48,-9.2 66.4,-27.6 18.4,-18.4 27.6,-40.5 27.6,-66.4 0,-25.9 -9.2,-48 -27.6,-66.4 -18.4,-18.4 -40.5,-27.6 -66.4,-27.6 -25.9,0 -48,9.2 -66.4,27.6 -18.4,18.4 -27.6,40.5 -27.6,66.4 0,25.9 9.2,48 27.6,66.4 18.4,18.5 40.5,27.6 66.4,27.6 z m 245,0 c 25.9,0 48,-9.2 66.4,-27.6 18.4,-18.4 27.6,-40.5 27.6,-66.4 0,-25.9 -9.2,-48 -27.6,-66.4 -18.4,-18.4 -40.5,-27.6 -66.4,-27.6 -25.9,0 -48,9.2 -66.4,27.6 -18.4,18.4 -27.6,40.5 -27.6,66.4 0,16.9 4.2,32.5 12.7,47 8.4,14.4 19.9,25.9 34.3,34.3 14.5,8.5 30.1,12.7 47,12.7 z M 214.2,745 c -11.2,0 -20.8,-4 -28.8,-12 -8,-8 -12,-17.6 -12,-28.8 l 0,-285.8 c 0,-11.2 4,-20.8 12,-28.8 8,-8 17.6,-12 28.8,-12 l 40.8,0 c 11.2,0 20.8,4 28.8,12 8,8 12,17.6 12,28.8 l 0,285.8 c 0,11.2 -4,20.8 -12,28.8 -8,8 -17.6,12 -28.8,12 l -40.8,0 z m 163.3,81.7 c -11.2,0 -20.8,-4 -28.8,-12 -8,-8 -12,-17.6 -12,-28.8 l 0,-367.5 c 0,-11.2 4,-20.8 12,-28.8 8,-8 17.6,-12 28.8,-12 l 245,0 c 11.2,0 20.8,4 28.8,12 8,8 12,17.6 12,28.8 l 0,367.5 c 0,11.2 -4,20.8 -12,28.8 -8,8 -17.6,12 -28.8,12 l -245,0 z M 745,745 c -11.2,0 -20.8,-4 -28.8,-12 -8,-8 -12,-17.6 -12,-28.8 l 0,-285.8 c 0,-11.2 4,-20.8 12,-28.8 8,-8 17.6,-12 28.8,-12 l 40.8,0 c 11.2,0 20.8,4 28.8,12 8,8 12,17.6 12,28.8 l 0,285.8 c 0,11.2 -4,20.8 -12,28.8 -8,8 -17.6,12 -28.8,12 l -40.8,0 z m -449.2,245 0,-81.7 c 0,-11.2 4,-20.8 12,-28.8 8,-8 17.6,-12 28.8,-12 l 81.7,0 c 11.2,0 20.8,4 28.8,12 8,8 12,17.6 12,28.8 l 0,81.7 -163.3,0 z m 245,0 0,-81.7 c 0,-11.2 4,-20.8 12,-28.8 8,-8 17.6,-12 28.8,-12 l 81.7,0 c 11.2,0 20.8,4 28.8,12 8,8 12,17.6 12,28.8 l 0,81.7 -163.3,0 z"
     id="path10"
     style="fill:#00aeef;fill-opacity:1"
     inkscape:connector-curvature="0" /><path
     inkscape:connector-curvature="0"
     style="fill:#ffffff;fill-opacity:1"
     d="m 520.18953,584.34099 c -13.85722,1.47415 -40.24466,3.09573 -50.71128,-4.71733 0,0 0,0 0,0 -6.7812,-3.24317 -13.12001,-8.40274 -19.16412,-16.06838 -15.77352,-20.19604 -49.23699,-16.80546 -67.2219,2.21125 -18.72186,19.9012 -17.68994,50.26897 2.35868,68.84342 19.31154,17.83738 51.59579,18.57446 67.22189,-2.50607 6.33895,-8.55016 13.12002,-14.29939 20.6383,-17.68996 0.29483,-0.14742 0.73708,-0.29483 1.17933,-0.58967 0.14742,-0.14742 0.29484,-0.14742 0.58967,-0.29483 0.73708,-0.29484 1.62159,-0.58968 2.65351,-0.88451 0,0 0,0 0,0 1.32676,-0.44224 2.65351,-0.73707 3.98026,-1.03191 20.04863,-5.01216 39.80241,-2.06383 47.32058,-0.73708 1.17933,0.14741 2.21125,0.29483 3.24318,0.73708 6.19151,2.06383 8.10794,7.51823 2.65351,12.97263 -18.72188,18.8693 -31.69459,45.1094 -66.92707,40.5395 -27.86161,-3.53799 -49.08957,21.81761 -47.91023,49.82672 1.03192,26.68235 25.06068,48.79481 51.006,47.02582 27.12465,-1.91642 48.94228,-26.24011 44.81459,-53.80696 -2.65351,-17.83738 2.65351,-29.63069 14.44677,-42.30849 14.29935,-15.47872 28.89365,-22.99695 50.71128,-22.40729 37.00148,0.8845 59.70361,-36.11701 44.37222,-68.69602 -9.58199,-20.04861 -27.27195,-28.74618 -55.28109,-26.97717 -28.89354,1.76899 -58.96653,-28.89361 -58.81912,-57.6398 0.14743,-11.64589 -2.35867,-25.06078 -8.25536,-34.79025 -12.53034,-20.93312 -39.21274,-26.68237 -60.88296,-15.62613 -21.22783,10.61397 -31.69445,34.93766 -24.76584,57.05012 7.51816,24.47111 31.10479,39.65498 56.1656,33.90575 13.56226,-3.09573 22.84955,-0.29484 31.39962,9.43466 4.12769,4.56989 9.28729,8.25529 13.26755,12.97263 6.33882,7.51822 18.57445,17.39512 16.95286,22.84954 -1.17933,3.98024 -3.39059,6.19148 -6.19151,7.37081 l 0,0 0,0 c -2.65351,0.8845 -5.60186,1.03192 -8.84492,1.03192 z m -102.01212,37.00149 c -12.23563,0.29483 -22.25988,-9.43464 -22.55471,-21.6702 -0.29484,-12.23556 9.43459,-22.25987 21.67021,-22.5547 12.2355,-0.29484 22.25988,9.43464 22.55472,21.6702 0.29483,12.23555 -9.58212,22.25987 -21.67022,22.5547 z m 49.237,114.98474 c -12.23551,0.29484 -22.25989,-9.43464 -22.55472,-21.67019 -0.29483,-12.23556 9.4347,-22.25987 21.67021,-22.55471 12.23563,-0.29483 22.25988,9.43464 22.55471,21.6702 0.29484,12.23556 -9.43457,22.40729 -21.6702,22.5547 z m 113.21582,-162.4528 c 12.2355,-0.29484 22.25975,9.43465 22.55459,21.67021 0.29483,12.23555 -9.43458,22.25986 -21.67009,22.5547 -12.23563,0.29483 -22.25988,-9.43466 -22.55471,-21.67022 -0.29484,-12.23554 9.43457,-22.25985 21.67021,-22.55469 z M 462.84447,504.73616 c -12.23551,0.29483 -22.25976,-9.43465 -22.55459,-21.67021 -0.29484,-12.23554 9.43457,-22.25986 21.67021,-22.5547 12.2355,-0.29482 22.25975,9.43465 22.55459,21.67021 0.29483,12.23555 -9.43458,22.40728 -21.67021,22.5547 z"
     id="path3" /></svg>