<?xml version="1.0" encoding="UTF-8" standalone="no"?>
<!-- Svg Vector Icons : http://www.onlinewebfonts.com/icon -->

<svg
   xmlns:dc="http://purl.org/dc/elements/1.1/"
   xmlns:cc="http://creativecommons.org/ns#"
   xmlns:rdf="http://www.w3.org/1999/02/22-rdf-syntax-ns#"
   xmlns:svg="http://www.w3.org/2000/svg"
   xmlns="http://www.w3.org/2000/svg"
   xmlns:sodipodi="http://sodipodi.sourceforge.net/DTD/sodipodi-0.dtd"
   xmlns:inkscape="http://www.inkscape.org/namespaces/inkscape"
   version="1.1"
   x="0px"
   y="0px"
   viewBox="0 0 1000 1000"
   enable-background="new 0 0 1000 1000"
   xml:space="preserve"
   id="svg2"
   inkscape:version="0.91 r13725"
   sodipodi:docname="nfbot.svg"
   inkscape:export-filename="C:\Users\jassimoes\Downloads\nfbot-512.png"
   inkscape:export-xdpi="47.02"
   inkscape:export-ydpi="47.02"><defs
     id="defs26" /><sodipodi:namedview
     pagecolor="#ffffff"
     bordercolor="#666666"
     borderopacity="1"
     objecttolerance="10"
     gridtolerance="10"
     guidetolerance="10"
     inkscape:pageopacity="0"
     inkscape:pageshadow="2"
     inkscape:window-width="1920"
     inkscape:window-height="1017"
     id="namedview24"
     showgrid="false"
     inkscape:zoom="0.3337544"
     inkscape:cx="-437.96864"
     inkscape:cy="672.34667"
     inkscape:window-x="-32000"
     inkscape:window-y="-32000"
     inkscape:window-maximized="0"
     inkscape:current-layer="svg2" /><metadata
     id="metadata4"> Svg Vector Icons : http://www.onlinewebfonts.com/icon <rdf:RDF><cc:Work
     rdf:about=""><dc:format>image/svg+xml</dc:format><dc:type
       rdf:resource="http://purl.org/dc/dcmitype/StillImage" /><dc:title></dc:title></cc:Work></rdf:RDF></metadata><path
     d="m 434.67,26.33 0,16.33 65.33,0 65.33,0 0,-16.33 0,-16.33 -65.33,0 -65.33,0 0,16.33 z"
     id="path10"
     inkscape:connector-curvature="0"
     style="fill:#00aeef;fill-opacity:1" /><path
     d="m 304,206 0,130.67 196,0 196,0 0,-130.67 0,-130.67 -196,0 -196,0 0,130.67 z m 130.67,-62.68 c 10.62,5.51 16.33,15.31 16.33,27.97 0,12.66 -5.72,22.46 -16.33,27.97 -10.82,5.72 -18.58,5.92 -29.81,0.41 -11.64,-5.51 -17.15,-14.7 -17.15,-28.38 0,-13.68 5.31,-22.66 16.95,-28.38 11.02,-5.51 18.98,-5.51 30.01,0.41 z m 163.33,0 c 10.62,5.51 16.33,15.31 16.33,27.97 0,12.66 -5.72,22.46 -16.33,27.97 -10.82,5.72 -18.58,5.92 -29.81,0.41 -11.64,-5.51 -17.56,-15.31 -17.56,-28.38 0,-25.31 24.71,-40.02 47.37,-27.97 z M 565.33,255 l 0,16.33 -65.33,0 -65.33,0 0,-16.33 0,-16.33 65.33,0 65.33,0 0,16.33 z"
     id="path12"
     inkscape:connector-curvature="0"
     style="fill:#00aeef;fill-opacity:1" /><path
     d="m 238.67,189.67 0,49 16.33,0 16.33,0 0,-49 0,-49 -16.33,0 -16.33,0 0,49 z"
     id="path14"
     inkscape:connector-curvature="0"
     style="fill:#00aeef;fill-opacity:1" /><path
     d="m 728.67,189.67 0,49 16.33,0 16.33,0 0,-49 0,-49 -16.33,0 -16.33,0 0,49 z"
     id="path16"
     inkscape:connector-curvature="0"
     style="fill:#00aeef;fill-opacity:1" /><path
     d="m 10,341.36 0,37.16 33.69,16.95 c 33.48,16.53 33.68,16.74 33.68,23.48 0,21.03 14.9,57.98 32.87,81.87 27.15,35.73 76.97,62.48 116.58,62.48 l 11.84,0 0,82.69 0,82.69 49,0 49,0 0,35.32 0,35.1 -10.41,4.9 c -13.68,6.53 -29.4,20.82 -38.79,35.32 -10.41,16.33 -14.7,33.69 -14.9,61.45 l -0.2,22.87 97.59,0.61 c 91.67,0.41 97.39,0.21 97.59,-3.06 1.23,-17.97 -1.23,-50.22 -4.29,-60.23 -7.35,-23.68 -25.73,-45.12 -48.8,-56.55 l -12.45,-6.33 0,-34.71 0,-34.71 98,0 98,0 -0.2,35.12 0,35.32 -12.46,5.92 c -24.29,11.43 -44.51,38.18 -50.43,66.15 -1.22,5.92 -2.25,20.42 -2.25,32.05 l 0,21.44 98,0 98,0 0,-21.44 c 0,-11.64 -1.02,-26.13 -2.24,-32.05 -5.72,-27.36 -26.75,-54.92 -50.43,-66.15 l -12.46,-5.92 0,-35.32 -0.2,-35.12 49,0 49,0 0,-82.69 0,-82.69 10.82,0 c 35.12,-0.2 75.95,-18.78 104.74,-47.98 23.48,-23.89 41.85,-61.05 45.12,-90.65 l 1.22,-12.86 33.48,-16.54 33.28,-16.74 0,-37.16 0,-37.35 -16.33,0 -16.33,0 0,27.15 0,27.15 -24.5,12.05 -24.5,12.05 -24.5,-12.05 -24.5,-12.05 0,-27.15 0,-27.15 -16.33,0 -16.33,0 0,37.36 0,37.16 31.65,15.92 c 31.44,15.72 31.65,15.72 31.65,22.66 0,10.21 -7.55,33.08 -15.72,48.18 -19.8,35.93 -66.15,65.33 -103.1,65.33 l -9.8,0 0,-64.31 0,-64.3 -98,0 -98,0 0,-16.33 0,-16.33 -65.35,0 -65.33,0 0,16.33 0,16.33 -98,0 -98,0 0,64.31 0,64.31 -9.8,0 c -13.68,0 -31.44,-4.9 -49.41,-13.68 -18.99,-9.19 -44.71,-34.3 -54.51,-52.67 -7.55,-14.7 -14.9,-37.57 -14.9,-47.16 0,-6.94 0.2,-6.94 31.65,-22.66 l 31.65,-15.92 0,-37.16 0,-37.37 -16.35,0 -16.33,0 0,27.15 0,27.15 -24.5,12.05 -24.5,12.05 -24.5,-12.05 -24.5,-12.05 0,-27.15 0,-27.15 -16.34,0 -16.33,0 0,37.36 z m 530.42,147.62 10.62,3.88 -12.86,12.86 -12.86,12.66 -12.46,-1.63 C 460.6,509.6 412.62,545.12 403.63,597.59 l -2.45,14.7 -16.13,0 -16.33,0 1.43,-12.86 c 0.82,-6.94 4.08,-20.01 7.15,-28.99 13.88,-40.83 47.16,-71.66 90.04,-83.5 15.71,-4.5 58.18,-3.27 73.08,2.04 z m 73.91,32.46 -11.03,11.23 4.7,7.55 c 13.27,22.25 22.46,49.2 22.66,66.35 l 0,5.72 -15.92,0 -15.92,0 -2.45,-14.29 c -2.25,-13.07 -9.39,-31.24 -15.31,-38.38 -1.63,-2.04 -7.55,2.65 -26.13,21.23 -22.66,22.46 -23.89,24.3 -22.87,30.63 1.43,9.19 -5.92,23.89 -14.5,29.4 -9.19,5.51 -25.93,5.51 -35.12,0 -7.35,-4.7 -15.11,-18.58 -15.11,-27.56 0,-8.98 7.76,-22.87 15.11,-27.56 4.49,-2.65 10.41,-4.08 16.74,-4.08 l 10,0 46.96,-46.96 46.96,-46.97 11.23,11.23 11.23,11.23 -11.23,11.23 z"
     id="path18"
     inkscape:connector-curvature="0"
     style="fill:#00aeef;fill-opacity:1" /><path
     d="m 271.33,973.67 0,16.33 98,0 98,0 0,-16.33 0,-16.33 -98,0 -98,0 0,16.33 z"
     id="path20"
     inkscape:connector-curvature="0"
     style="fill:#00aeef;fill-opacity:1" /><path
     d="m 532.67,973.67 0,16.33 98,0 98,0 0,-16.33 0,-16.33 -98,0 -98,0 0,16.33 z"
     id="path22"
     inkscape:connector-curvature="0"
     style="fill:#00aeef;fill-opacity:1" /><rect
     style="fill:#00aeef;fill-opacity:1;stroke:none;stroke-width:2;stroke-linecap:round;stroke-linejoin:round;stroke-miterlimit:4;stroke-dasharray:none;stroke-opacity:1"
     id="rect4169"
     width="326.58746"
     height="200.74641"
     x="340.07043"
     y="462.17938" /><path
     inkscape:connector-curvature="0"
     style="fill:#ffffff;fill-opacity:1"
     d="m 516.17433,559.27338 c -11.10134,1.18099 -32.2411,2.48008 -40.62615,-3.77918 0,0 0,0 0,0 -5.43257,-2.59819 -10.51084,-6.73166 -15.35291,-12.87282 -12.63662,-16.1796 -39.44515,-13.46332 -53.85326,1.77149 -14.99861,15.9434 -14.17191,40.27185 1.88959,55.15235 15.471,14.29002 41.33474,14.88051 53.85326,-2.00768 5.07827,-6.84976 10.51084,-11.45563 16.5339,-14.17191 0.2362,-0.1181 0.5905,-0.2362 0.94479,-0.4724 0.1181,-0.1181 0.2362,-0.1181 0.4724,-0.2362 0.5905,-0.2362 1.29909,-0.4724 2.12579,-0.7086 0,0 0,0 0,0 1.06289,-0.35429 2.12578,-0.59049 3.18868,-0.82669 16.0615,-4.01538 31.8868,-1.65339 37.90986,-0.5905 0.9448,0.1181 1.77149,0.2362 2.59819,0.5905 4.96016,1.65339 6.49545,6.02306 2.12578,10.39273 -14.9986,15.11671 -25.39134,36.13838 -53.61706,32.4773 -22.32077,-2.83438 -39.32706,17.47869 -38.38227,39.91755 0.8267,21.37597 20.07688,39.09086 40.86235,37.67367 21.73026,-1.53529 39.20896,-21.02167 35.90218,-43.10623 -2.12579,-14.29001 2.12578,-23.73795 11.57372,-33.89449 11.45563,-12.40042 23.14746,-18.42349 40.62615,-17.95109 29.64292,0.7086 47.8302,-28.93432 35.54788,-55.03426 -7.67645,-16.0615 -21.84836,-23.02935 -44.28722,-21.61216 -23.14746,1.41719 -47.23971,-23.14746 -47.12161,-46.17682 0.1181,-9.32984 -1.88959,-20.07687 -6.61356,-27.87142 -10.03844,-16.7701 -31.4144,-21.37597 -48.775,-12.51852 -17.00629,8.50314 -25.39134,27.98952 -19.84067,45.70441 6.02306,19.60448 24.91894,31.7687 44.99582,27.16283 10.86513,-2.48008 18.30538,-0.2362 25.15514,7.55836 3.30678,3.66107 7.44025,6.61355 10.62893,10.39273 5.07827,6.02306 14.88051,13.93571 13.58142,18.30539 -0.94479,3.18868 -2.71628,4.96017 -4.96017,5.90496 l 0,0 0,0 c -2.12579,0.7086 -4.48777,0.8267 -7.08595,0.8267 z m -81.7247,29.64291 c -9.80224,0.2362 -17.83299,-7.55835 -18.06918,-17.36059 -0.2362,-9.80224 7.55835,-17.83299 17.36059,-18.06919 9.80224,-0.2362 17.83299,7.55835 18.06919,17.36059 0.23619,9.80224 -7.67646,17.83299 -17.3606,18.06919 z m 39.44516,92.11743 c -9.80224,0.2362 -17.83299,-7.55835 -18.06919,-17.36059 -0.2362,-9.80224 7.55835,-17.83299 17.36059,-18.06919 9.80224,-0.2362 17.83299,7.55835 18.06919,17.36059 0.2362,9.80224 -7.55835,17.95109 -17.36059,18.06919 z m 90.70023,-130.14539 c 9.80224,-0.2362 17.83299,7.55835 18.06919,17.36059 0.2362,9.80224 -7.55835,17.83299 -17.36059,18.06919 -9.80224,0.2362 -17.83299,-7.55836 -18.06919,-17.3606 -0.2362,-9.80223 7.55836,-17.83298 17.36059,-18.06918 z m -94.36131,-55.38856 c -9.80224,0.2362 -17.83299,-7.55835 -18.06919,-17.36059 -0.2362,-9.80224 7.55836,-17.83299 17.3606,-18.06919 9.80223,-0.2362 17.83298,7.55835 18.06918,17.36059 0.2362,9.80224 -7.55835,17.95109 -17.36059,18.06919 z"
     id="path3" /></svg>