<svg id="Layer_1" data-name="Layer 1" xmlns="http://www.w3.org/2000/svg" xmlns:xlink="http://www.w3.org/1999/xlink" viewBox="0 0 1080 1080"><defs><style>.cls-1{fill:#181730;}.cls-2{fill:url(#linear-gradient);}</style><linearGradient id="linear-gradient" x1="2115.63" y1="-405.12" x2="1762.14" y2="-201.03" gradientTransform="translate(839.48 2324.13) rotate(-90)" gradientUnits="userSpaceOnUse"><stop offset="0" stop-color="#29235c"/><stop offset="0.68" stop-color="#009086"/><stop offset="1" stop-color="#4cb48c"/></linearGradient></defs><path class="cls-1" d="M360.4,653.76q16.69,0,27.28,9.44t10.59,30.24v70.32H361v-59q0-10.78-3.1-16.27t-10-5.48q-10.59,0-14.22,8.63t-3.62,24.76v47.32h-37.3V655.67H320.9L326,670h1.43a36,36,0,0,1,8.2-8.78,34.85,34.85,0,0,1,11-5.53A46.73,46.73,0,0,1,360.4,653.76Z"/><path class="cls-1" d="M478,653.76q20.5,0,32.05,10.16t11.55,29v70.89H495.75l-7.15-14.31h-.76a52.35,52.35,0,0,1-9.4,9.3,32.47,32.47,0,0,1-11,5.24,58.84,58.84,0,0,1-15.17,1.67,36.31,36.31,0,0,1-16.79-3.81,27.72,27.72,0,0,1-11.73-11.55q-4.29-7.72-4.3-19.55,0-17.37,12-25.76t34.83-9.45l18-.57v-1.53q0-7.25-3.58-10.3t-9.59-3a52.73,52.73,0,0,0-14.26,2.24,119.66,119.66,0,0,0-15.79,5.77l-10.78-24.61a84.41,84.41,0,0,1,21.18-7.25A129.92,129.92,0,0,1,478,653.76Zm6.49,61.72-8.59.38q-10.31.39-14.45,3.58t-4.15,9.11c0,3.69,1,6.41,3,8.16a11.32,11.32,0,0,0,7.82,2.62A16.83,16.83,0,0,0,479.68,735a14.25,14.25,0,0,0,4.82-11.16Z"/><path class="cls-1" d="M619.16,653.76q16.7,0,27.29,9.44T657,693.44v70.32H619.73v-59q0-10.78-3.1-16.27t-10-5.48q-10.59,0-14.21,8.63t-3.63,24.76v47.32h-37.3V655.67h28.15L584.72,670h1.43a36,36,0,0,1,8.21-8.78,34.74,34.74,0,0,1,11-5.53A46.61,46.61,0,0,1,619.16,653.76Z"/><path class="cls-1" d="M787.24,709.47a71.74,71.74,0,0,1-3.72,24,47.05,47.05,0,0,1-10.78,17.65A45.83,45.83,0,0,1,755.67,762a65.35,65.35,0,0,1-22.61,3.67A60.72,60.72,0,0,1,711.54,762a47.23,47.23,0,0,1-28.24-28.48,67.78,67.78,0,0,1-4-24q0-17.93,6.54-30.34a44.31,44.31,0,0,1,18.7-18.88q12.17-6.5,29-6.49,15.54,0,27.66,6.49a46.77,46.77,0,0,1,19,18.88Q787.25,691.54,787.24,709.47Zm-70,0a64.09,64.09,0,0,0,1.62,15.6q1.62,6.34,5.2,9.64a13.37,13.37,0,0,0,9.4,3.29q5.82,0,9.25-3.29t5-9.64a65.87,65.87,0,0,0,1.57-15.6A64,64,0,0,0,747.7,694q-1.58-6.21-5.06-9.35t-9.39-3.15q-8.49,0-12.26,7.06T717.22,709.47Z"/><path class="cls-1" d="M299.59,855h-6.83V811.3h23.79v6h-17V831h15.89v6.07H299.59Z"/><path class="cls-1" d="M345.84,837.56V855H339V811.3h11.91q8.16,0,12.08,3.17c2.62,2.12,3.92,5.3,3.92,9.57q0,8.16-8.19,11.63L370.58,855h-7.84l-10.09-17.46Zm0-5.92h4.79q4.81,0,7-1.86a6.84,6.84,0,0,0,2.16-5.5c0-2.47-.78-4.25-2.34-5.32s-3.9-1.62-7-1.62h-4.56Z"/><path class="cls-1" d="M417.61,855l-4.21-12.14H397.28L393.16,855h-7.27l15.78-43.9h7.49L424.94,855Zm-6-18.3-3.95-11.9c-.29-.8-.69-2.05-1.2-3.77s-.86-3-1.05-3.77a69.23,69.23,0,0,1-2.28,8.05l-3.81,11.39Z"/><path class="cls-1" d="M463.49,855l-12.22-36.51H451q.5,8.13.49,15.25V855h-6.25V811.3H455l11.71,34.78h.18l12.05-34.78h9.74V855H482V833.4c0-2.17.06-5,.16-8.49s.2-5.6.27-6.34h-.23L469.58,855Z"/><path class="cls-1" d="M538.38,855H514.53V811.3h23.85v6h-17v11.9h15.89v6H521.42V849h17Z"/><path class="cls-1" d="M601.15,855h-7.5L586.5,829c-.3-1.14-.69-2.78-1.15-4.92s-.74-3.64-.84-4.47c-.19,1.27-.5,2.93-.93,5s-.8,3.55-1.09,4.55l-7,25.95H568l-5.45-21.89L557,811.3h7l6,25.48q1.41,6.13,2,10.83c.22-1.7.53-3.59,1-5.68s.8-3.79,1.15-5.09l6.86-25.54h6.84L595,837a99.22,99.22,0,0,1,2.14,10.65,80.24,80.24,0,0,1,2.07-10.89l6-25.42h7Z"/><path class="cls-1" d="M670.3,833.1q0,10.68-5.15,16.6t-14.57,5.92q-9.55,0-14.67-5.87T630.79,833q0-10.81,5.15-16.62t14.69-5.81q9.4,0,14.54,5.89T670.3,833.1Zm-32.18,0q0,8.08,3.14,12.25t9.32,4.17q6.13,0,9.27-4.13T663,833.1q0-8-3.09-12.2t-9.25-4.16q-6.2,0-9.35,4.16T638.12,833.1Z"/><path class="cls-1" d="M701,837.56V855h-6.89V811.3H706q8.16,0,12.08,3.17c2.61,2.12,3.92,5.3,3.92,9.57q0,8.16-8.19,11.63L725.75,855h-7.84l-10.1-17.46Zm0-5.92h4.79q4.82,0,7-1.86a6.82,6.82,0,0,0,2.17-5.5c0-2.47-.78-4.25-2.34-5.32s-3.9-1.62-7-1.62H701Z"/><path class="cls-1" d="M778.81,855h-8l-13.24-19.79-4.06,3.44V855h-6.89V811.3h6.89v20.88q2.82-3.6,5.62-6.91l11.39-14h7.84q-11,13.46-15.83,19.17Z"/><path class="cls-2" d="M477.52,299.38c-7.94-7.94-19.72-8-27.62-.22-8,8-8.23,20.08-.38,27.88a19.68,19.68,0,1,0,28-27.66Zm3.25,147.85c-7.65-7.74-19.77-7.6-27.64.34a19.45,19.45,0,0,0-.27,27.72c7.58,7.59,20.5,7.7,27.95.29A19.89,19.89,0,0,0,480.77,447.23Zm145-150.32c-7.93-7.94-20.32-8.11-28-.35-10.07,10.18-6.71,30.17,10.23,33.15a19.79,19.79,0,0,0,18.32-6.07C633.6,315.7,633.42,304.56,625.81,296.91Zm0,0c-7.93-7.94-20.32-8.11-28-.35-10.07,10.18-6.71,30.17,10.23,33.15a19.79,19.79,0,0,0,18.32-6.07C633.6,315.7,633.42,304.56,625.81,296.91Zm-145,150.32c-7.65-7.74-19.77-7.6-27.64.34a19.45,19.45,0,0,0-.27,27.72c7.58,7.59,20.5,7.7,27.95.29A19.89,19.89,0,0,0,480.77,447.23Zm-3.25-147.85c-7.94-7.94-19.72-8-27.62-.22-8,8-8.23,20.08-.38,27.88a19.68,19.68,0,1,0,28-27.66Zm0,0c-7.94-7.94-19.72-8-27.62-.22-8,8-8.23,20.08-.38,27.88a19.68,19.68,0,1,0,28-27.66Zm3.25,147.85c-7.65-7.74-19.77-7.6-27.64.34a19.45,19.45,0,0,0-.27,27.72c7.58,7.59,20.5,7.7,27.95.29A19.89,19.89,0,0,0,480.77,447.23ZM611,441a20.16,20.16,0,1,0,20.19,20.17A20.15,20.15,0,0,0,611,441Zm14.78-144.07c-7.93-7.94-20.32-8.11-28-.35-10.07,10.18-6.71,30.17,10.23,33.15a19.79,19.79,0,0,0,18.32-6.07C633.6,315.7,633.42,304.56,625.81,296.91Zm0,0c-7.93-7.94-20.32-8.11-28-.35-10.07,10.18-6.71,30.17,10.23,33.15a19.79,19.79,0,0,0,18.32-6.07C633.6,315.7,633.42,304.56,625.81,296.91ZM453.13,447.57a19.45,19.45,0,0,0-.27,27.72c7.58,7.59,20.5,7.7,27.95.29a19.89,19.89,0,0,0,0-28.35C473.12,439.49,461,439.63,453.13,447.57ZM477.59,327.2a19.69,19.69,0,0,0-.07-27.82c-7.94-7.94-19.72-8-27.62-.22-8,8-8.23,20.08-.38,27.88A19.81,19.81,0,0,0,477.59,327.2ZM611,441a20.16,20.16,0,1,0,20.19,20.17A20.15,20.15,0,0,0,611,441Zm43.43-216.6H418.35a42.82,42.82,0,0,0-42.81,42.82V503.29a42.85,42.85,0,0,0,42.81,42.85H654.46a42.85,42.85,0,0,0,42.8-42.85V267.2A42.81,42.81,0,0,0,654.46,224.38ZM611,504.05a42.91,42.91,0,1,1,42.91-42.9A42.93,42.93,0,0,1,611,504.05Zm19.72-154.62c-13.14,7.14-26.59,8.48-40.2,1.25a31.47,31.47,0,0,1-10.45-8.83c-9.34-12.05-21.55-18.5-37.05-18.59-3.31,0-6.58.07-9.87.23a51.45,51.45,0,0,0-36,16.81l-7.14,7.78a52,52,0,0,0-13.63,34.75V383c0,5.91,0,11.8.09,17.74a24,24,0,0,0,10.89,20.32c7.17,5,13.95,10.19,18,18.21a44.81,44.81,0,0,1-5.52,49c-11.2,13.28-25.77,18.06-42.47,14.68s-28.33-13.34-33.57-29.93c-3.14-9.89-1.76-19.5,2.57-28.73a60.74,60.74,0,0,1,12.84-18.17C448.81,417,453,405.45,454,392.64a55.53,55.53,0,0,0-4.5-27.62,48.81,48.81,0,0,0-11.94-15.85c-10.65-9.78-19.19-21.13-18.7-36.54.58-17.41,8.54-31,24.24-39,15.32-7.82,30.35-6.11,44.47,3.54,4.23,2.91,7.59,6.94,11.41,10.36,12.1,10.81,26.46,14,42.07,13.28,9.94-.47,19.28-2.65,27.33-9,3.43-2.67,6-6,8.67-9.34,11.19-13.87,25.89-18.41,42.87-14.89,18.71,3.82,31.07,17.56,33.58,35.91C656.06,322.49,647.3,340.41,630.75,349.43Zm-32.91-52.87c-10.07,10.18-6.71,30.17,10.23,33.15a19.79,19.79,0,0,0,18.32-6.07c7.21-7.94,7-19.08-.58-26.73C617.88,289,605.49,288.8,597.84,296.56ZM611,441a20.16,20.16,0,1,0,20.19,20.17A20.15,20.15,0,0,0,611,441Zm-157.9,6.59a19.45,19.45,0,0,0-.27,27.72c7.58,7.59,20.5,7.7,27.95.29a19.89,19.89,0,0,0,0-28.35C473.12,439.49,461,439.63,453.13,447.57ZM449.9,299.16c-8,8-8.23,20.08-.38,27.88a19.68,19.68,0,1,0,28-27.66C469.58,291.44,457.8,291.35,449.9,299.16ZM611,441a20.16,20.16,0,1,0,20.19,20.17A20.15,20.15,0,0,0,611,441ZM477.52,299.38c-7.94-7.94-19.72-8-27.62-.22-8,8-8.23,20.08-.38,27.88a19.68,19.68,0,1,0,28-27.66Zm3.25,147.85c-7.65-7.74-19.77-7.6-27.64.34a19.45,19.45,0,0,0-.27,27.72c7.58,7.59,20.5,7.7,27.95.29A19.89,19.89,0,0,0,480.77,447.23Zm145-150.32c-7.93-7.94-20.32-8.11-28-.35-10.07,10.18-6.71,30.17,10.23,33.15a19.79,19.79,0,0,0,18.32-6.07C633.6,315.7,633.42,304.56,625.81,296.91Zm0,0c-7.93-7.94-20.32-8.11-28-.35-10.07,10.18-6.71,30.17,10.23,33.15a19.79,19.79,0,0,0,18.32-6.07C633.6,315.7,633.42,304.56,625.81,296.91ZM611,441a20.16,20.16,0,1,0,20.19,20.17A20.15,20.15,0,0,0,611,441Zm-130.26,6.25c-7.65-7.74-19.77-7.6-27.64.34a19.45,19.45,0,0,0-.27,27.72c7.58,7.59,20.5,7.7,27.95.29A19.89,19.89,0,0,0,480.77,447.23Zm-3.25-147.85c-7.94-7.94-19.72-8-27.62-.22-8,8-8.23,20.08-.38,27.88a19.68,19.68,0,1,0,28-27.66Z"/></svg>