<svg id="Layer_1" data-name="Layer 1" xmlns="http://www.w3.org/2000/svg" xmlns:xlink="http://www.w3.org/1999/xlink" viewBox="0 0 1080 550"><defs><style>.cls-1{fill:url(#linear-gradient);}.cls-2{fill:#181730;}</style><linearGradient id="linear-gradient" x1="999.17" y1="565.81" x2="700.21" y2="738.41" gradientTransform="translate(-359.96 1124.69) rotate(-90)" gradientUnits="userSpaceOnUse"><stop offset="0" stop-color="#29235c"/><stop offset="0.68" stop-color="#009086"/><stop offset="1" stop-color="#4cb48c"/></linearGradient></defs><path class="cls-1" d="M242.35,202.37c-6.72-6.71-16.68-6.79-23.36-.19-6.81,6.77-7,17-.32,23.59a16.65,16.65,0,1,0,23.68-23.4Zm2.74,125c-6.47-6.54-16.72-6.43-23.37.29a16.46,16.46,0,0,0-.23,23.45c6.41,6.41,17.34,6.5,23.64.24A16.83,16.83,0,0,0,245.09,327.41ZM367.76,200.28c-6.71-6.71-17.18-6.86-23.65-.3-8.52,8.62-5.68,25.52,8.65,28a16.74,16.74,0,0,0,15.49-5.13A15.94,15.94,0,0,0,367.76,200.28Zm0,0c-6.71-6.71-17.18-6.86-23.65-.3-8.52,8.62-5.68,25.52,8.65,28a16.74,16.74,0,0,0,15.49-5.13A15.94,15.94,0,0,0,367.76,200.28ZM245.09,327.41c-6.47-6.54-16.72-6.43-23.37.29a16.46,16.46,0,0,0-.23,23.45c6.41,6.41,17.34,6.5,23.64.24A16.83,16.83,0,0,0,245.09,327.41Zm-2.74-125c-6.72-6.71-16.68-6.79-23.36-.19-6.81,6.77-7,17-.32,23.59a16.65,16.65,0,1,0,23.68-23.4Zm0,0c-6.72-6.71-16.68-6.79-23.36-.19-6.81,6.77-7,17-.32,23.59a16.65,16.65,0,1,0,23.68-23.4Zm2.74,125c-6.47-6.54-16.72-6.43-23.37.29a16.46,16.46,0,0,0-.23,23.45c6.41,6.41,17.34,6.5,23.64.24A16.83,16.83,0,0,0,245.09,327.41Zm110.17-5.28a17,17,0,1,0,17.08,17.06A17,17,0,0,0,355.26,322.13Zm12.5-121.85c-6.71-6.71-17.18-6.86-23.65-.3-8.52,8.62-5.68,25.52,8.65,28a16.74,16.74,0,0,0,15.49-5.13A15.94,15.94,0,0,0,367.76,200.28Zm0,0c-6.71-6.71-17.18-6.86-23.65-.3-8.52,8.62-5.68,25.52,8.65,28a16.74,16.74,0,0,0,15.49-5.13A15.94,15.94,0,0,0,367.76,200.28Zm-146,127.42a16.46,16.46,0,0,0-.23,23.45c6.41,6.41,17.34,6.5,23.64.24a16.83,16.83,0,0,0,0-24C238.62,320.87,228.37,321,221.72,327.7ZM242.4,225.9a16.66,16.66,0,0,0-.05-23.53c-6.72-6.71-16.68-6.79-23.36-.19-6.81,6.77-7,17-.32,23.59A16.75,16.75,0,0,0,242.4,225.9Zm112.86,96.23a17,17,0,1,0,17.08,17.06A17,17,0,0,0,355.26,322.13ZM392,138.94H192.3a36.21,36.21,0,0,0-36.2,36.22V374.82a36.24,36.24,0,0,0,36.2,36.24H392a36.24,36.24,0,0,0,36.2-36.24V175.16A36.21,36.21,0,0,0,392,138.94ZM355.26,375.46a36.29,36.29,0,1,1,36.3-36.27A36.3,36.3,0,0,1,355.26,375.46ZM371.94,244.7c-11.11,6-22.49,7.17-34,1.06a26.71,26.71,0,0,1-8.84-7.47c-7.9-10.19-18.22-15.65-31.33-15.72-2.8,0-5.57.06-8.35.19A43.57,43.57,0,0,0,259,237l-6,6.59A43.93,43.93,0,0,0,241.43,273v.17c0,5,0,10,.07,15a20.26,20.26,0,0,0,9.22,17.19c6,4.19,11.79,8.61,15.25,15.4a37.91,37.91,0,0,1-4.67,41.45c-9.48,11.22-21.79,15.27-35.92,12.41s-24-11.29-28.39-25.31c-2.66-8.37-1.49-16.5,2.18-24.3A51.52,51.52,0,0,1,210,309.6c8-7.8,11.56-17.52,12.45-28.36a46.79,46.79,0,0,0-3.8-23.35,41.28,41.28,0,0,0-10.1-13.41c-9-8.28-16.23-17.87-15.82-30.9.49-14.73,7.23-26.2,20.5-33,13-6.62,25.67-5.17,37.62,3,3.57,2.47,6.41,5.87,9.64,8.77,10.23,9.14,22.38,11.81,35.58,11.22,8.41-.39,16.31-2.23,23.12-7.59a46.44,46.44,0,0,0,7.33-7.9c9.46-11.74,21.89-15.57,36.26-12.6,15.82,3.23,26.27,14.85,28.4,30.37C393.34,221.91,385.93,237.07,371.94,244.7ZM344.11,200c-8.52,8.62-5.68,25.52,8.65,28a16.74,16.74,0,0,0,15.49-5.13,15.94,15.94,0,0,0-.49-22.61C361.05,193.57,350.58,193.42,344.11,200Zm11.15,122.15a17,17,0,1,0,17.08,17.06A17,17,0,0,0,355.26,322.13ZM221.72,327.7a16.46,16.46,0,0,0-.23,23.45c6.41,6.41,17.34,6.5,23.64.24a16.83,16.83,0,0,0,0-24C238.62,320.87,228.37,321,221.72,327.7ZM219,202.18c-6.81,6.77-7,17-.32,23.59a16.65,16.65,0,1,0,23.68-23.4C235.63,195.66,225.67,195.58,219,202.18Zm136.27,120a17,17,0,1,0,17.08,17.06A17,17,0,0,0,355.26,322.13ZM242.35,202.37c-6.72-6.71-16.68-6.79-23.36-.19-6.81,6.77-7,17-.32,23.59a16.65,16.65,0,1,0,23.68-23.4Zm2.74,125c-6.47-6.54-16.72-6.43-23.37.29a16.46,16.46,0,0,0-.23,23.45c6.41,6.41,17.34,6.5,23.64.24A16.83,16.83,0,0,0,245.09,327.41ZM367.76,200.28c-6.71-6.71-17.18-6.86-23.65-.3-8.52,8.62-5.68,25.52,8.65,28a16.74,16.74,0,0,0,15.49-5.13A15.94,15.94,0,0,0,367.76,200.28Zm0,0c-6.71-6.71-17.18-6.86-23.65-.3-8.52,8.62-5.68,25.52,8.65,28a16.74,16.74,0,0,0,15.49-5.13A15.94,15.94,0,0,0,367.76,200.28Zm-12.5,121.85a17,17,0,1,0,17.08,17.06A17,17,0,0,0,355.26,322.13Zm-110.17,5.28c-6.47-6.54-16.72-6.43-23.37.29a16.46,16.46,0,0,0-.23,23.45c6.41,6.41,17.34,6.5,23.64.24A16.83,16.83,0,0,0,245.09,327.41Zm-2.74-125c-6.72-6.71-16.68-6.79-23.36-.19-6.81,6.77-7,17-.32,23.59a16.65,16.65,0,1,0,23.68-23.4Z"/><path class="cls-2" d="M562.9,199.15q14.11,0,23.07,8t9,25.58v59.46H563.38V242.32q0-9.12-2.62-13.76t-8.43-4.64q-9,0-12,7.3t-3.07,20.94v40H505.69V200.77H529.5l4.27,12.1H535a30.34,30.34,0,0,1,6.94-7.42,29.26,29.26,0,0,1,9.28-4.68A39.49,39.49,0,0,1,562.9,199.15Z"/><path class="cls-2" d="M662.37,199.15q17.34,0,27.11,8.6t9.76,24.48v60H677.38l-6.06-12.1h-.64a43.2,43.2,0,0,1-7.95,7.86,27.26,27.26,0,0,1-9.32,4.44,50.07,50.07,0,0,1-12.83,1.41,30.7,30.7,0,0,1-14.2-3.22,23.47,23.47,0,0,1-9.92-9.77q-3.63-6.53-3.63-16.54,0-14.69,10.17-21.78t29.44-8l15.25-.48v-1.29c0-4.09-1-7-3-8.72a12.08,12.08,0,0,0-8.11-2.58,44.19,44.19,0,0,0-12.06,1.9,100,100,0,0,0-13.36,4.88L622,207.38a71.58,71.58,0,0,1,17.91-6.13A109.6,109.6,0,0,1,662.37,199.15Zm5.49,52.2-7.27.33q-8.72.31-12.22,3a9.16,9.16,0,0,0-3.51,7.71q0,4.68,2.5,6.9a9.6,9.6,0,0,0,6.62,2.22,14.19,14.19,0,0,0,9.8-3.64,12,12,0,0,0,4.08-9.44Z"/><path class="cls-2" d="M781.75,199.15q14.12,0,23.07,8t9,25.58v59.46H782.23V242.32q0-9.12-2.62-13.76t-8.43-4.64q-9,0-12,7.3t-3.06,20.94v40H724.54V200.77h23.8l4.28,12.1h1.21a30.34,30.34,0,0,1,6.94-7.42,29.26,29.26,0,0,1,9.28-4.68A39.49,39.49,0,0,1,781.75,199.15Z"/><path class="cls-2" d="M923.9,246.27a60.57,60.57,0,0,1-3.15,20.33,39.86,39.86,0,0,1-9.12,14.93,38.7,38.7,0,0,1-14.44,9.16,55.29,55.29,0,0,1-19.12,3.1,51.33,51.33,0,0,1-18.19-3.1A39.93,39.93,0,0,1,836,266.6a57.36,57.36,0,0,1-3.34-20.33q0-15.17,5.52-25.66a37.51,37.51,0,0,1,15.82-16q10.28-5.49,24.56-5.49a48.77,48.77,0,0,1,23.4,5.49,39.54,39.54,0,0,1,16.1,16Q923.9,231.11,923.9,246.27Zm-59.22,0a53.79,53.79,0,0,0,1.37,13.19,16.14,16.14,0,0,0,4.4,8.15,11.23,11.23,0,0,0,7.94,2.79,10.84,10.84,0,0,0,7.83-2.79,16.39,16.39,0,0,0,4.23-8.15,55.45,55.45,0,0,0,1.34-13.19,54,54,0,0,0-1.34-13.07,15.51,15.51,0,0,0-4.27-7.91,11.44,11.44,0,0,0-7.95-2.66q-7.18,0-10.37,6T864.68,246.27Z"/><path class="cls-2" d="M511.52,369.53h-5.83V332.24H526v5.15H511.52V349h13.55v5.18H511.52Z"/><path class="cls-2" d="M551,354.63v14.9h-5.88V332.24h10.16q7,0,10.3,2.7t3.35,8.16q0,7-7,9.92l10.16,16.51h-6.69l-8.61-14.9Zm0-5.05h4.08q4.11,0,6-1.58a5.84,5.84,0,0,0,1.85-4.69c0-2.11-.66-3.63-2-4.54s-3.33-1.38-6-1.38H551Z"/><path class="cls-2" d="M612.18,369.53l-3.59-10.36H594.84l-3.51,10.36h-6.2l13.45-37.45H605l13.45,37.45ZM607,353.92l-3.37-10.16c-.24-.67-.58-1.75-1-3.21s-.73-2.53-.89-3.21a60.85,60.85,0,0,1-2,6.86l-3.24,9.72Z"/><path class="cls-2" d="M651.31,369.53l-10.43-31.15h-.19q.42,6.94.42,13v18.14h-5.34V332.24h8.29l10,29.66h.15l10.28-29.66h8.31v37.29h-5.65V351.09c0-1.86,0-4.27.13-7.25s.17-4.78.23-5.41h-.19l-10.8,31.1Z"/><path class="cls-2" d="M715.18,369.53H694.84V332.24h20.34v5.15H700.72v10.15h13.55v5.1H700.72v11.71h14.46Z"/><path class="cls-2" d="M768.72,369.53h-6.39l-6.1-22.24q-.39-1.46-1-4.2c-.39-1.83-.63-3.1-.71-3.81-.16,1.08-.43,2.5-.8,4.23s-.67,3-.92,3.88l-5.95,22.14h-6.4l-4.64-18.67-4.73-18.62h6L742.23,354c.81,3.48,1.38,6.56,1.73,9.23.18-1.44.45-3.06.81-4.85s.69-3.23,1-4.33l5.85-21.78h5.83l6,21.88a82.9,82.9,0,0,1,1.82,9.08,70.2,70.2,0,0,1,1.77-9.28l5.12-21.68h6Z"/><path class="cls-2" d="M827.7,350.83q0,9.1-4.39,14.16T810.87,370q-8.13,0-12.5-5T794,350.78q0-9.24,4.39-14.18t12.53-5q8,0,12.4,5T827.7,350.83Zm-27.45,0q0,6.89,2.68,10.45t7.94,3.55c3.5,0,6.13-1.17,7.91-3.52s2.67-5.84,2.67-10.48-.88-8-2.64-10.41-4.39-3.54-7.89-3.54-6.18,1.18-8,3.54S800.25,346.26,800.25,350.83Z"/><path class="cls-2" d="M853.89,354.63v14.9H848V332.24h10.16q7,0,10.3,2.7t3.35,8.16q0,7-7,9.92L875,369.53H868.3l-8.61-14.9Zm0-5.05H858q4.11,0,5.95-1.58a5.84,5.84,0,0,0,1.85-4.69,5.11,5.11,0,0,0-2-4.54q-2-1.38-6-1.38h-3.88Z"/><path class="cls-2" d="M920.24,369.53h-6.81l-11.29-16.89-3.47,2.93v14H892.8V332.24h5.87V350q2.42-3.06,4.8-5.89l9.71-11.91h6.69q-9.42,11.47-13.5,16.35Z"/></svg>