<?xml version="1.0" encoding="UTF-8" standalone="no"?>
<svg
   id="Layer_1"
   data-name="Layer 1"
   viewBox="0 0 16 16.005012"
   version="1.1"
   sodipodi:docname="C.nanoframework_icon.svg"
   inkscape:version="1.1.1 (3bf5ae0d25, 2021-09-20)"
   width="16"
   height="16.005013"
   xmlns:inkscape="http://www.inkscape.org/namespaces/inkscape"
   xmlns:sodipodi="http://sodipodi.sourceforge.net/DTD/sodipodi-0.dtd"
   xmlns="http://www.w3.org/2000/svg"
   xmlns:svg="http://www.w3.org/2000/svg">
  <sodipodi:namedview
     id="namedview16"
     pagecolor="#ffffff"
     bordercolor="#666666"
     borderopacity="1.0"
     inkscape:pageshadow="2"
     inkscape:pageopacity="0.0"
     inkscape:pagecheckerboard="true"
     showgrid="false"
     inkscape:zoom="32"
     inkscape:cx="8.546875"
     inkscape:cy="9.140625"
     inkscape:window-width="1920"
     inkscape:window-height="1017"
     inkscape:window-x="1912"
     inkscape:window-y="-8"
     inkscape:window-maximized="1"
     inkscape:current-layer="Layer_1"
     fit-margin-top="0"
     fit-margin-left="0"
     fit-margin-right="0"
     fit-margin-bottom="0" />
  <defs
     id="defs11">
    <style
       id="style2">.cls-1{fill:url(#linear-gradient);}</style>
    <linearGradient
       id="linear-gradient"
       x1="8.5500002"
       y1="-877.02002"
       x2="-413.45999"
       y2="-633.38"
       gradientTransform="matrix(0,-0.04166668,0.04166668,0,39.467096,-0.43332805)"
       gradientUnits="userSpaceOnUse">
      <stop
         offset="0"
         stop-color="#29235c"
         id="stop4" />
      <stop
         offset="0.68"
         stop-color="#009086"
         id="stop6" />
      <stop
         offset="1"
         stop-color="#4cb48c"
         id="stop8" />
    </linearGradient>
  </defs>
  <path
     class="cls-1"
     d="M 5.0712489,3.7308345 C 4.6762503,3.3358361 4.090002,3.3316722 3.6962488,3.719581 3.2958335,4.1179107 3.2870783,4.7195838 3.6774928,5.1066675 A 0.97875046,0.97875046 0 1 0 5.0704087,3.7316598 Z m 0.161248,7.3550085 C 4.8520828,10.700837 4.2491642,10.707508 3.8574967,11.102122 a 0.96833377,0.96833377 0 0 0 -0.012904,1.379586 c 0.3749973,0.377082 1.0195838,0.382499 1.3899972,0.01418 0.3937534,-0.392081 0.3904148,-1.00917 -0.00225,-1.409999 z M 12.447504,3.6079237 c -0.394586,-0.395006 -1.010837,-0.4037538 -1.39125,-0.017481 -0.500002,0.5066635 -0.333337,1.5000042 0.508749,1.6491658 a 0.98458383,0.98458383 0 0 0 0.91125,-0.3020819 c 0.357081,-0.393333 0.349579,-0.9491669 -0.02874,-1.329581 z m 0,0 c -0.394586,-0.395006 -1.010837,-0.4037538 -1.39125,-0.017481 -0.500002,0.5066635 -0.333337,1.5000042 0.508749,1.6491658 A 0.98458383,0.98458383 0 0 0 12.476253,4.937527 C 12.833334,4.544194 12.825832,3.9883601 12.447523,3.607946 Z M 5.2324969,11.085843 C 4.8520828,10.700837 4.2491642,10.707508 3.8574967,11.102122 a 0.96833377,0.96833377 0 0 0 -0.012904,1.379586 c 0.3749973,0.377082 1.0195838,0.382499 1.3899972,0.01418 0.3937534,-0.392081 0.3904148,-1.00917 -0.00225,-1.409999 z M 5.0712489,3.7308345 C 4.6762503,3.3358361 4.090002,3.3316722 3.6962488,3.719581 3.2958335,4.1179107 3.2870783,4.7195838 3.6774928,5.1066675 A 0.97875046,0.97875046 0 1 0 5.0704087,3.7316598 Z m 0,0 C 4.6762503,3.3358361 4.090002,3.3316722 3.6962488,3.719581 3.2958335,4.1179107 3.2870783,4.7195838 3.6774928,5.1066675 A 0.97875046,0.97875046 0 1 0 5.0704087,3.7316598 Z m 0.161248,7.3550085 C 4.8520828,10.700837 4.2491642,10.707508 3.8574967,11.102122 a 0.96833377,0.96833377 0 0 0 -0.012904,1.379586 c 0.3749973,0.377082 1.0195838,0.382499 1.3899972,0.01418 0.3937534,-0.392081 0.3904148,-1.00917 -0.00225,-1.409999 z m 6.4795891,-0.311249 a 1.002917,1.002917 0 1 0 1.004167,1.003332 1.0025004,1.0025004 0 0 0 -1.004167,-1.003752 z m 0.735418,-7.1666703 c -0.394586,-0.395006 -1.010837,-0.4037538 -1.39125,-0.017481 -0.500002,0.5066635 -0.333337,1.5000042 0.508749,1.6491658 a 0.98458383,0.98458383 0 0 0 0.91125,-0.3020819 c 0.357081,-0.393333 0.349579,-0.9491669 -0.02874,-1.329581 z m 0,0 c -0.394586,-0.395006 -1.010837,-0.4037538 -1.39125,-0.017481 -0.500002,0.5066635 -0.333337,1.5000042 0.508749,1.6491658 A 0.98458383,0.98458383 0 0 0 12.476253,4.937527 C 12.833334,4.544194 12.825832,3.9883601 12.447523,3.607946 Z M 3.8574967,11.101673 a 0.96833377,0.96833377 0 0 0 -0.012904,1.379584 c 0.3749973,0.377083 1.0195838,0.3825 1.3899972,0.01418 0.3937534,-0.39166 0.3916677,-1.008749 0,-1.409998 C 4.85209,10.700443 4.2500043,10.707105 3.857504,11.101709 Z M 5.0741673,5.11459 a 0.97916703,0.97916703 0 0 0 -0.003,-1.3837555 C 4.6761677,3.3358361 4.0899194,3.3316722 3.6961662,3.719581 3.295751,4.1179107 3.2869958,4.7195838 3.6774102,5.1066675 a 0.9850004,0.9850004 0 0 0 1.3966668,0.00795 z m 6.6379187,5.659584 a 1.002917,1.002917 0 1 0 1.004167,1.003332 1.0025004,1.0025004 0 0 0 -1.004167,-1.003332 z M 13.872087,0 H 2.1279131 A 2.1300008,2.1300008 0 0 0 4.1235702e-8,2.1304189 V 13.87376 A 2.1312509,2.1312509 0 0 0 2.1295786,16.005012 H 13.872087 A 2.1312509,2.1312509 0 0 0 16,13.87376 V 2.1304189 A 2.1300008,2.1300008 0 0 0 13.872087,0 Z m -2.160001,13.911257 a 2.1341675,2.1341675 0 1 1 2.134583,-2.133751 2.135001,2.135001 0 0 1 -2.134583,2.133751 z m 0.981247,-7.6908361 c -0.653747,0.3550034 -1.322919,0.4216693 -1.999998,0.062119 A 1.572084,1.572084 0 0 1 10.173332,5.8433753 C 9.7083369,5.2437954 9.1016669,4.9229574 8.3308307,4.9192063 c -0.1666645,0 -0.3274997,0.003 -0.4912458,0.010803 A 2.5633344,2.5633344 0 0 0 6.0479194,5.7662587 L 5.6929158,6.1533424 A 2.5879178,2.5879178 0 0 0 5.0145837,7.882514 v 0.00998 c -0.00225,0.2941667 0.00225,0.5870807 0.0045,0.8825013 0.00525,0.430417 0.192495,0.76875 0.5416619,1.010829 0.3562563,0.2466687 0.6933368,0.5066707 0.8970856,0.9058407 A 2.2295842,2.2295842 0 0 1 6.1857525,13.127494 C 5.6282531,13.787911 4.9040817,14.025825 4.0732492,13.857495 3.2424168,13.689158 2.6640834,13.19374 2.4032493,12.368745 2.2469979,11.876658 2.3157495,11.398744 2.5311644,10.939577 A 3.0283347,3.0283347 0 0 1 3.1695016,10.036242 C 3.642832,9.5779093 3.8499193,9.0049923 3.9020006,8.369573 a 2.7604179,2.7604179 0 0 0 -0.2237499,-1.375 C 3.5390822,6.6870743 3.3353333,6.4370737 3.0844999,6.2062414 2.5544967,5.7208245 2.1299163,5.1566555 2.1540813,4.3899907 2.1828153,3.5237397 2.5790818,2.8483184 3.3599186,2.4508217 4.1219994,2.0616524 4.8695032,2.146654 5.5720005,2.6270743 5.7803332,2.771652 5.9490834,2.9720696 6.1395006,3.1420729 6.7411663,3.6799913 7.4557494,3.8358224 8.232003,3.8024896 8.7265869,3.7795328 9.1903369,3.6708233 9.5915859,3.3558222 c 0.170415,-0.1329191 0.29875,-0.3000038 0.4312491,-0.4645828 0.556667,-0.6904185 1.287501,-0.9166667 2.132498,-0.7412543 0.930418,0.190417 1.545423,0.8750061 1.670419,1.7866688 0.12625,0.9433376 -0.309584,1.834999 -1.132501,2.2837519 z M 11.056254,3.5904206 c -0.500002,0.5066635 -0.333337,1.5000043 0.508749,1.6491659 a 0.98458383,0.98458383 0 0 0 0.91125,-0.302082 c 0.358335,-0.3949986 0.349579,-0.9491669 -0.02873,-1.3295808 -0.394586,-0.395006 -1.010836,-0.4037538 -1.39125,-0.017481 z m 0.655832,7.1837534 a 1.002917,1.002917 0 1 0 1.004167,1.003332 1.0025004,1.0025004 0 0 0 -1.004167,-1.003332 z m -7.8545893,0.327499 a 0.96833377,0.96833377 0 0 0 -0.012904,1.379584 c 0.3749973,0.377083 1.0195838,0.3825 1.3899972,0.01418 0.3937534,-0.39166 0.3916677,-1.008749 0,-1.409998 -0.3824991,-0.384996 -0.984585,-0.378335 -1.3770852,0.01629 z M 3.6970815,3.7195886 C 3.2966663,4.1179181 3.287911,4.7195914 3.6783256,5.1066749 A 0.97875046,0.97875046 0 1 0 5.0712413,3.7316672 C 4.6762429,3.3358361 4.0899944,3.3316722 3.6970741,3.7195886 Z m 8.0150045,7.0545854 a 1.002917,1.002917 0 1 0 1.004167,1.003332 1.0025004,1.0025004 0 0 0 -1.004167,-1.003332 z M 5.0712489,3.7325075 C 4.6762503,3.3375015 4.090002,3.3333378 3.6962488,3.721254 3.2958335,4.1195912 3.2870783,4.7212569 3.6774928,5.1083405 A 0.97875046,0.97875046 0 1 0 5.0704087,3.7333403 Z m 0.161248,7.3533355 C 4.8520828,10.700837 4.2491642,10.707508 3.8574967,11.102122 a 0.96833377,0.96833377 0 0 0 -0.012904,1.379586 c 0.3749973,0.377082 1.0195838,0.382499 1.3899972,0.01418 0.3937534,-0.392081 0.3904148,-1.00917 -0.00225,-1.409999 z M 12.447504,3.6079237 c -0.394586,-0.395006 -1.010837,-0.4037538 -1.39125,-0.017481 -0.500002,0.5066635 -0.333337,1.5000042 0.508749,1.6491658 a 0.98458383,0.98458383 0 0 0 0.91125,-0.3020819 c 0.357081,-0.393333 0.349579,-0.9491669 -0.02874,-1.329581 z m 0,0 c -0.394586,-0.395006 -1.010837,-0.4037538 -1.39125,-0.017481 -0.500002,0.5066635 -0.333337,1.5000042 0.508749,1.6491658 a 0.98458383,0.98458383 0 0 0 0.91125,-0.3020819 c 0.357081,-0.393333 0.349579,-0.9491669 -0.02874,-1.329581 z m -0.735418,7.1666703 a 1.002917,1.002917 0 1 0 1.004167,1.003332 1.0025004,1.0025004 0 0 0 -1.004167,-1.003752 z M 5.2324969,11.085843 C 4.8520828,10.700837 4.2491642,10.707508 3.8574967,11.102122 a 0.96833377,0.96833377 0 0 0 -0.012904,1.379586 c 0.3749973,0.377082 1.0195838,0.382499 1.3899972,0.01418 0.3937534,-0.392081 0.3904148,-1.00917 -0.00225,-1.409999 z M 5.0712489,3.7308345 C 4.6762503,3.3358361 4.090002,3.3316722 3.6962488,3.719581 3.2958335,4.1179107 3.2870783,4.7195838 3.6774928,5.1066675 A 0.97875046,0.97875046 0 1 0 5.0704087,3.7316598 Z"
     id="path13"
     style="fill:url(#linear-gradient);stroke-width:0.0416667" />
</svg>
