<?xml version="1.0" encoding="utf-8"?>
<!-- Generator: Adobe Illustrator 18.0.0, SVG Export Plug-In . SVG Version: 6.00 Build 0)  -->
<!DOCTYPE svg PUBLIC "-//W3C//DTD SVG 1.1//EN" "http://www.w3.org/Graphics/SVG/1.1/DTD/svg11.dtd">
<svg version="1.1" id="Layer_1" xmlns="http://www.w3.org/2000/svg" xmlns:xlink="http://www.w3.org/1999/xlink" x="0px" y="0px"
	 viewBox="0 0 720 576" enable-background="new 0 0 720 576" xml:space="preserve">
<path fill="#00AEEF" d="M181.8,296.1c-7.2,0.8-21,1.6-26.5-2.4c0,0,0,0,0,0c-3.5-1.7-6.9-4.4-10-8.4c-8.3-10.5-25.7-8.8-35.1,1.2
	c-9.8,10.4-9.2,26.3,1.2,36c10.1,9.3,27,9.7,35.1-1.3c3.3-4.5,6.9-7.5,10.8-9.2c0.2-0.1,0.4-0.2,0.6-0.3c0.1,0,0.2-0.1,0.3-0.1
	c0.4-0.2,0.9-0.3,1.4-0.5c0,0,0,0,0,0c0.7-0.2,1.4-0.4,2.1-0.6c10.5-2.6,20.8-1.1,24.7-0.3c0.6,0.1,1.2,0.2,1.7,0.4
	c3.2,1.1,4.3,3.9,1.4,6.8c-9.8,9.8-16.5,23.5-35,21.2c-14.6-1.8-25.6,11.4-25,26.1c0.5,13.9,13.1,25.5,26.7,24.5
	c14.2-1,25.6-13.7,23.4-28.1c-1.4-9.3,1.4-15.4,7.5-22.1c7.4-8.1,15.1-12,26.5-11.7c19.4,0.5,31.2-18.8,23.1-35.8
	c-5-10.5-14.2-15-28.9-14.1c-15.1,0.9-30.8-15.1-30.7-30.1c0-6.1-1.2-13.1-4.3-18.2c-6.5-10.9-20.5-13.9-31.8-8.2
	c-11.1,5.6-16.6,18.3-13,29.8c4,12.7,16.3,20.7,29.4,17.7c7.1-1.7,11.9-0.1,16.4,4.9c2.1,2.4,4.8,4.3,6.9,6.7
	c3.3,3.9,9.7,9.1,8.8,12c-0.6,2.1-1.8,3.3-3.3,3.9l0,0l0,0C185,296.1,183.5,296.2,181.8,296.1z M128.5,315.5
	c-6.4,0.1-11.6-4.9-11.8-11.3s4.9-11.6,11.3-11.8c6.4-0.1,11.6,4.9,11.8,11.3S134.9,315.4,128.5,315.5z M154.2,375.6
	c-6.4,0.1-11.6-4.9-11.8-11.3s4.9-11.6,11.3-11.8c6.4-0.1,11.6,4.9,11.8,11.3S160.6,375.5,154.2,375.6z M213.3,290.7
	c6.4-0.1,11.6,4.9,11.8,11.3s-4.9,11.6-11.3,11.8c-6.4,0.1-11.6-4.9-11.8-11.3S207,290.8,213.3,290.7z M151.8,254.6
	c-6.4,0.1-11.6-4.9-11.8-11.3c-0.1-6.4,4.9-11.6,11.3-11.8c6.4-0.1,11.6,4.9,11.8,11.3S158.2,254.5,151.8,254.6z"/>
<g>
	<path fill="#2E3192" d="M332.8,253.8H294c-6.5,0-12.1,2.3-16.8,6.7c-4.1,3.9-6.6,8.5-7.4,13.9h-0.3v37.6h13.6v-33.9
		c0-3,1-5.5,3.2-7.6c2.1-2.1,4.6-3.2,7.7-3.2h38.8c2,0,3.7,0.7,5.2,2.1c1.4,1.4,2.1,3.1,2.1,5.2v37.4h13.6v-37.4
		c0-5.7-2.1-10.7-6.1-14.8C343.5,255.9,338.5,253.8,332.8,253.8z"/>
	<path fill="#2E3192" d="M424.6,253.8h-57.2v13.6h57.2c2,0,3.7,0.7,5.2,2.2c1.4,1.3,2,2.7,2,4.2v1.8c-2.3-0.6-4.7-1-7.3-1h-42.3
		c-6.1,0-11.1,1.7-15,5c-3.9,3.4-5.9,7.9-5.9,13.4v0.8c0,5.5,2,10,6,13.4c3.8,3.3,8.9,4.9,14.9,4.9h42.3c6.2,0,11.2-1.7,15.1-5.1
		c3.8-3.5,5.8-8.2,5.8-13.9v-19.1c0-5.5-2.1-10.2-6.2-14.1C435.2,255.8,430.2,253.8,424.6,253.8z M424.6,298.5h-42.3
		c-2,0-3.6-0.3-4.9-0.9c-1.7-0.8-2.4-1.9-2.4-3.8v-0.8c0-1.9,0.7-3,2.4-3.8c1.3-0.6,2.9-0.9,4.9-0.9h42.3c2,0,3.6,0.3,4.9,0.9
		c1.7,0.8,2.4,1.9,2.4,3.7C431.9,295.9,431,298.5,424.6,298.5z"/>
	<path fill="#2E3192" d="M516.4,253.8h-38.8c-6.5,0-12.1,2.3-16.8,6.7c-4.1,3.9-6.6,8.5-7.4,13.9h-0.3v37.6h13.6v-33.9
		c0-3,1-5.5,3.2-7.6c2.1-2.1,4.6-3.2,7.7-3.2h38.8c2,0,3.7,0.7,5.2,2.1c1.4,1.4,2.1,3.1,2.1,5.2v37.4h13.6v-37.4
		c0-5.7-2.1-10.7-6.1-14.8C527.1,255.9,522.1,253.8,516.4,253.8z"/>
	<path fill="#2E3192" d="M624.6,259.9c-4-4-9-6.1-14.7-6.1h-42.7c-5.7,0-10.6,2-14.7,6.1c-4,4-6.1,9-6.1,14.7v16.8
		c0,5.7,2,10.6,6.1,14.7c4,4,9,6.1,14.7,6.1H610c5.7,0,10.6-2,14.7-6.1c4-4,6.1-9,6.1-14.7v-16.8
		C630.7,268.9,628.7,263.9,624.6,259.9z M610,298.5h-42.7c-2,0-3.6-0.7-5.1-2.1c-1.4-1.4-2.1-3-2.1-5v-16.8c0-2,0.7-3.6,2.1-5
		c1.4-1.4,3-2.1,5-2.1H610c2,0,3.6,0.7,5,2.1c1.4,1.4,2.1,3,2.1,5v16.8c0,2-0.7,3.7-2.1,5C613.6,297.8,612,298.5,610,298.5z"/>
</g>
<g>
	<path fill="#00AEEF" d="M272.7,325.8c-1.3,1.3-1.9,2.8-1.9,4.6v27.1h4.9v-14.9h27.7v-4.9h-27.7v-7.3c0-0.5,0.2-0.8,0.5-1.2
		c0.3-0.3,0.7-0.5,1.2-0.5h26.1v-4.8h-26.1C275.6,323.9,274,324.6,272.7,325.8z"/>
	<path fill="#00AEEF" d="M310.8,336.4c-1.6,1.6-2.5,3.6-2.5,5.8v15.3h5v-15.3c0-0.9,0.3-1.7,1-2.4c0.7-0.7,1.5-1,2.5-1h20.7V334
		h-20.7C314.4,334,312.4,334.8,310.8,336.4z"/>
	<path fill="#00AEEF" d="M365.4,334h-24v4.9h24c1,0,1.8,0.3,2.6,1c0.7,0.6,1,1.3,1,2.1v1.3c-1.1-0.4-2.3-0.6-3.6-0.6h-18.1
		c-2.5,0-4.5,0.7-6.1,2c-1.6,1.3-2.4,3.1-2.4,5.3v0.3c0,2.2,0.8,3.9,2.4,5.3c1.6,1.3,3.6,1.9,6.1,1.9h18.1c2.5,0,4.6-0.7,6.1-2
		c1.5-1.4,2.3-3.2,2.4-5.5v-8c0-2.2-0.9-4.1-2.5-5.6C369.7,334.8,367.7,334,365.4,334z M343.8,350c0-0.9,0.4-1.6,1.3-2
		c0.6-0.3,1.4-0.4,2.3-0.4h18.1c0.9,0,1.7,0.1,2.3,0.4c0.9,0.4,1.3,1,1.3,1.9c0,1.2-0.4,2.7-3.6,2.7h-18.1c-0.9,0-1.7-0.1-2.3-0.4
		c-0.9-0.4-1.3-1-1.3-2V350z"/>
	<path fill="#00AEEF" d="M422.2,334h-11.8c-2.4,0-4.4,0.8-6,2.5c-1.6-1.6-3.6-2.5-6-2.5h-10.3c-2.6,0-5,0.9-6.9,2.7
		c-1.8,1.6-2.8,3.7-3,6h-0.1v14.8h5v-13.7c0-1.4,0.5-2.5,1.5-3.5c1-1,2.2-1.4,3.6-1.4h10.3c1,0,1.8,0.3,2.5,1c0.7,0.7,1,1.5,1,2.5
		v15.2h5v-15.2c0-1,0.3-1.7,1-2.4c0.7-0.7,1.5-1,2.5-1h11.8c1,0,1.8,0.3,2.5,1c0.7,0.7,1,1.5,1,2.4v15.2h5v-15.2
		c0-2.3-0.8-4.3-2.5-5.9C426.6,334.8,424.5,334,422.2,334z"/>
	<path fill="#00AEEF" d="M460.7,334h-16.6c-2.3,0-4.4,0.8-6,2.4c-1.6,1.6-2.5,3.6-2.5,5.9v6.9c0,2.3,0.8,4.3,2.5,5.9
		c1.7,1.6,3.7,2.4,6,2.4h26.6v-4.8h-26.6c-1,0-1.8-0.3-2.5-1c-0.7-0.7-1.1-1.5-1.1-2.4v-1.8h30.2v-3.6c0-2.7-1-5-2.9-6.9
		C465.8,335,463.4,334,460.7,334z M444.1,338.9h16.6c1.3,0,2.4,0.4,3.4,1.3c0.8,0.7,1.3,1.5,1.5,2.4h-25.1v-0.2c0-1,0.3-1.8,1.1-2.4
		C442.3,339.2,443.1,338.9,444.1,338.9z"/>
	<path fill="#00AEEF" d="M514.8,346.8c0,1.6-0.6,3-1.8,4.1c-1.2,1.2-2.6,1.7-4.3,1.7h-2.7c-1.7,0-3.1-0.6-4.2-1.7
		c-1.2-1.2-1.8-2.5-1.8-4.1V334h-5v12.8c0,1.6-0.6,3-1.8,4.1c-1.2,1.2-2.6,1.7-4.2,1.7h-2.7c-1.7,0-3-0.6-4.2-1.7
		c-1.2-1.2-1.8-2.5-1.8-4.1V334h-4.9v12.8c0,2.9,1.1,5.5,3.2,7.5c2.1,2.1,4.7,3.1,7.7,3.1h2.7c3.5,0,6.3-1.3,8.5-3.9
		c2.1,2.6,5,3.9,8.5,3.9h2.7c3,0,5.6-1.1,7.7-3.1c2.1-2.1,3.2-4.6,3.2-7.5V334h-4.9V346.8z"/>
	<path fill="#00AEEF" d="M551.3,334h-18.3c-2.3,0-4.3,0.8-6,2.4c-1.6,1.6-2.5,3.6-2.5,5.8v7c0,2.3,0.8,4.2,2.5,5.8
		c1.6,1.6,3.6,2.4,6,2.4h18.3c2.3,0,4.3-0.8,6-2.4c1.6-1.6,2.5-3.6,2.5-5.8v-7c0-2.3-0.8-4.2-2.5-5.8
		C555.6,334.8,553.6,334,551.3,334z M529.6,342.3c0-0.9,0.3-1.7,1-2.4c0.7-0.7,1.5-1,2.5-1h18.3c1,0,1.8,0.3,2.5,1
		c0.7,0.7,1,1.4,1,2.4v7c0,0.9-0.3,1.7-1,2.4c-0.7,0.7-1.5,1-2.5,1h-18.3c-1,0-1.8-0.3-2.5-1c-0.7-0.7-1-1.4-1-2.4V342.3z"/>
	<path fill="#00AEEF" d="M573.1,334c-2.3,0-4.3,0.8-6,2.4c-1.6,1.6-2.5,3.6-2.5,5.8v15.3h5v-15.3c0-0.9,0.3-1.7,1-2.4
		c0.7-0.7,1.5-1,2.5-1h20.7V334H573.1z"/>
</g>
<polygon fill="#00AEEF" points="622.2,357.5 625.7,355.4 609.4,339.6 621.8,332.9 619.3,330.2 601,340 601,329.7 596.6,329.7 
	596.6,357 601,357 601,344.2 605.8,341.6 "/>
</svg>
